<svg width="20" height="20" viewBox="0 0 20 20" fill="none" xmlns="http://www.w3.org/2000/svg">
<g id="vuesax/outline/truck">
<g id="truck">
<path id="Vector" d="M10.8332 12.2917H1.6665C1.32484 12.2917 1.0415 12.0084 1.0415 11.6667V5.00002C1.0415 2.81669 2.8165 1.04169 4.99984 1.04169H12.4998C12.8415 1.04169 13.1248 1.32502 13.1248 1.66669V10C13.1248 11.2667 12.0998 12.2917 10.8332 12.2917ZM2.2915 11.0417H10.8332C11.4082 11.0417 11.8748 10.575 11.8748 10V2.29169H4.99984C3.50817 2.29169 2.2915 3.50835 2.2915 5.00002V11.0417Z" fill="#717171"/>
<path id="Vector_2" d="M15.8332 17.2917H14.9998C14.6582 17.2917 14.3748 17.0084 14.3748 16.6667C14.3748 16.0917 13.9082 15.625 13.3332 15.625C12.7582 15.625 12.2915 16.0917 12.2915 16.6667C12.2915 17.0084 12.0082 17.2917 11.6665 17.2917H8.33317C7.9915 17.2917 7.70817 17.0084 7.70817 16.6667C7.70817 16.0917 7.2415 15.625 6.6665 15.625C6.0915 15.625 5.62484 16.0917 5.62484 16.6667C5.62484 17.0084 5.3415 17.2917 4.99984 17.2917H4.1665C2.4415 17.2917 1.0415 15.8917 1.0415 14.1667V11.6667C1.0415 11.325 1.32484 11.0417 1.6665 11.0417H10.8332C11.4082 11.0417 11.8748 10.575 11.8748 10V4.16669C11.8748 3.82502 12.1582 3.54169 12.4998 3.54169H14.0332C14.8582 3.54169 15.6165 3.98337 16.0248 4.70003L17.4498 7.19169C17.5582 7.38336 17.5582 7.62502 17.4498 7.81669C17.3415 8.00836 17.1332 8.12502 16.9082 8.12502H15.8332C15.7165 8.12502 15.6248 8.21669 15.6248 8.33335V10.8334C15.6248 10.95 15.7165 11.0417 15.8332 11.0417H18.3332C18.6748 11.0417 18.9582 11.325 18.9582 11.6667V14.1667C18.9582 15.8917 17.5582 17.2917 15.8332 17.2917ZM15.5415 16.0417H15.8332C16.8665 16.0417 17.7082 15.2 17.7082 14.1667V12.2917H15.8332C15.0332 12.2917 14.3748 11.6334 14.3748 10.8334V8.33335C14.3748 7.53335 15.0248 6.87502 15.8332 6.87502L14.9415 5.31669C14.7582 4.99169 14.4082 4.79169 14.0332 4.79169H13.1248V10C13.1248 11.2667 12.0998 12.2917 10.8332 12.2917H2.2915V14.1667C2.2915 15.2 3.13317 16.0417 4.1665 16.0417H4.45818C4.73318 15.0834 5.6165 14.375 6.6665 14.375C7.7165 14.375 8.59983 15.0834 8.87483 16.0417H11.1332C11.4082 15.0834 12.2915 14.375 13.3415 14.375C14.3915 14.375 15.2665 15.0834 15.5415 16.0417Z" fill="#717171"/>
<path id="Vector_3" d="M6.66667 18.9583C5.4 18.9583 4.375 17.9333 4.375 16.6667C4.375 15.4 5.4 14.375 6.66667 14.375C7.93333 14.375 8.95833 15.4 8.95833 16.6667C8.95833 17.9333 7.93333 18.9583 6.66667 18.9583ZM6.66667 15.625C6.09167 15.625 5.625 16.0917 5.625 16.6667C5.625 17.2417 6.09167 17.7083 6.66667 17.7083C7.24167 17.7083 7.70833 17.2417 7.70833 16.6667C7.70833 16.0917 7.24167 15.625 6.66667 15.625Z" fill="#717171"/>
<path id="Vector_4" d="M13.3332 18.9583C12.0665 18.9583 11.0415 17.9333 11.0415 16.6667C11.0415 15.4 12.0665 14.375 13.3332 14.375C14.5998 14.375 15.6248 15.4 15.6248 16.6667C15.6248 17.9333 14.5998 18.9583 13.3332 18.9583ZM13.3332 15.625C12.7582 15.625 12.2915 16.0917 12.2915 16.6667C12.2915 17.2417 12.7582 17.7083 13.3332 17.7083C13.9082 17.7083 14.3748 17.2417 14.3748 16.6667C14.3748 16.0917 13.9082 15.625 13.3332 15.625Z" fill="#717171"/>
<path id="Vector_5" d="M18.3333 12.2917H15.8333C15.0333 12.2917 14.375 11.6333 14.375 10.8333V8.33333C14.375 7.53333 15.0333 6.875 15.8333 6.875H16.9083C17.1333 6.875 17.3417 6.99167 17.45 7.19167L18.875 9.69167C18.925 9.78334 18.9583 9.89167 18.9583 10V11.6667C18.9583 12.0083 18.675 12.2917 18.3333 12.2917ZM15.8333 8.125C15.7167 8.125 15.625 8.21667 15.625 8.33333V10.8333C15.625 10.95 15.7167 11.0417 15.8333 11.0417H17.7083V10.1667L16.5417 8.125H15.8333Z" fill="#717171"/>
</g>
</g>
</svg>
