<svg width="20" height="20" viewBox="0 0 20 20" fill="none" xmlns="http://www.w3.org/2000/svg">
<g id="vuesax/outline/verify">
<g id="verify">
<path id="Vector" d="M8.99163 12.6417C8.82497 12.6417 8.66663 12.575 8.54997 12.4584L6.5333 10.4417C6.29163 10.2 6.29163 9.80002 6.5333 9.55836C6.77497 9.31669 7.17497 9.31669 7.41663 9.55836L8.99163 11.1334L12.575 7.55002C12.8166 7.30836 13.2166 7.30836 13.4583 7.55002C13.7 7.79169 13.7 8.19169 13.4583 8.43336L9.4333 12.4584C9.31663 12.575 9.1583 12.6417 8.99163 12.6417Z" fill="#7A7A7A"/>
<path id="Vector_2" d="M10.0001 18.9584C9.47507 18.9584 8.95006 18.7834 8.54173 18.4334L7.22506 17.3C7.09173 17.1834 6.7584 17.0667 6.5834 17.0667H5.15006C3.91673 17.0667 2.91673 16.0667 2.91673 14.8334V13.4084C2.91673 13.2334 2.80007 12.9084 2.6834 12.775L1.5584 11.45C0.875065 10.6417 0.875065 9.36669 1.5584 8.55835L2.6834 7.23335C2.80007 7.10002 2.91673 6.77502 2.91673 6.60002V5.16669C2.91673 3.93335 3.91673 2.93335 5.15006 2.93335H6.59173C6.76673 2.93335 7.10007 2.80835 7.2334 2.70002L8.55007 1.56669C9.36673 0.866687 10.6417 0.866687 11.4584 1.56669L12.7751 2.70002C12.9084 2.81669 13.2417 2.93335 13.4167 2.93335H14.8334C16.0667 2.93335 17.0667 3.93335 17.0667 5.16669V6.58335C17.0667 6.75835 17.1917 7.09169 17.3084 7.22502L18.4417 8.54169C19.1417 9.35835 19.1417 10.6334 18.4417 11.45L17.3084 12.7667C17.1917 12.9 17.0667 13.2334 17.0667 13.4084V14.825C17.0667 16.0584 16.0667 17.0584 14.8334 17.0584H13.4167C13.2417 17.0584 12.9084 17.1834 12.7751 17.2917L11.4584 18.425C11.0501 18.7834 10.5251 18.9584 10.0001 18.9584ZM5.15006 4.18335C4.6084 4.18335 4.16673 4.62502 4.16673 5.16669V6.59169C4.16673 7.06669 3.94173 7.67502 3.6334 8.03335L2.5084 9.35835C2.21673 9.70002 2.21673 10.2917 2.5084 10.6334L3.6334 11.9584C3.94173 12.325 4.16673 12.925 4.16673 13.4V14.825C4.16673 15.3667 4.6084 15.8084 5.15006 15.8084H6.59173C7.07506 15.8084 7.6834 16.0334 8.05006 16.35L9.36673 17.4834C9.7084 17.775 10.3084 17.775 10.6501 17.4834L11.9667 16.35C12.3334 16.0417 12.9417 15.8084 13.4251 15.8084H14.8417C15.3834 15.8084 15.8251 15.3667 15.8251 14.825V13.4084C15.8251 12.925 16.0501 12.3167 16.3667 11.95L17.5001 10.6334C17.7917 10.2917 17.7917 9.69169 17.5001 9.35002L16.3667 8.03335C16.0501 7.66669 15.8251 7.05835 15.8251 6.57502V5.16669C15.8251 4.62502 15.3834 4.18335 14.8417 4.18335H13.4251C12.9417 4.18335 12.3334 3.95835 11.9667 3.64169L10.6501 2.50835C10.3084 2.21669 9.7084 2.21669 9.36673 2.50835L8.05006 3.65002C7.6834 3.95835 7.06673 4.18335 6.59173 4.18335H5.15006Z" fill="#7A7A7A"/>
</g>
</g>
</svg>
