<svg width="151" height="41" viewBox="0 0 151 41" fill="none" xmlns="http://www.w3.org/2000/svg">
<g id="Frame">
<g id="Clip path group">
<mask id="mask0_0_145" style="mask-type:luminance" maskUnits="userSpaceOnUse" x="0" y="0" width="151" height="41">
<g id="clip0_88_194716">
<path id="Vector" d="M150.848 0.9646H0.847656V40.9646H150.848V0.9646Z" fill="white"/>
</g>
</mask>
<g mask="url(#mask0_0_145)">
<g id="Group">
<path id="Vector_2" d="M13.0193 20.6415C17.3544 20.6415 20.8687 17.1246 20.8687 12.7865C20.8687 8.44823 17.3544 4.9314 13.0193 4.9314C8.6842 4.9314 5.16992 8.44823 5.16992 12.7865C5.16992 17.1246 8.6842 20.6415 13.0193 20.6415Z" fill="#383E47"/>
<path id="Vector_3" d="M27.1253 15.633C29.3033 15.633 31.069 13.8661 31.069 11.6865C31.069 9.50691 29.3033 7.73999 27.1253 7.73999C24.9473 7.73999 23.1816 9.50691 23.1816 11.6865C23.1816 13.8661 24.9473 15.633 27.1253 15.633Z" fill="#383E47"/>
<path id="Vector_4" d="M4.7913 27.2815C6.9693 27.2815 8.73494 25.5146 8.73494 23.3349C8.73494 21.1553 6.9693 19.3884 4.7913 19.3884C2.61329 19.3884 0.847656 21.1553 0.847656 23.3349C0.847656 25.5146 2.61329 27.2815 4.7913 27.2815Z" fill="#383E47"/>
<path id="Vector_5" d="M26.1399 34.1509C30.6635 34.1509 34.3305 30.4811 34.3305 25.9542C34.3305 21.4274 30.6635 17.7576 26.1399 17.7576C21.6163 17.7576 17.9492 21.4274 17.9492 25.9542C17.9492 30.4811 21.6163 34.1509 26.1399 34.1509Z" fill="#383E47"/>
<path id="Vector_6" d="M12.1484 36.9969C14.8708 36.9969 17.0779 34.7882 17.0779 32.0637C17.0779 29.3392 14.8708 27.1306 12.1484 27.1306C9.42579 27.1306 7.21875 29.3392 7.21875 32.0637C7.21875 34.7882 9.42579 36.9969 12.1484 36.9969Z" fill="#383E47"/>
<path id="Vector_7" d="M54.729 20.5655C55.7803 20.7896 56.6248 21.3152 57.2624 22.1424C57.9001 22.9524 58.2189 23.8831 58.2189 24.9344C58.2189 26.4511 57.6846 27.6574 56.6161 28.5536C55.5648 29.4325 54.0913 29.872 52.1955 29.872H43.7422V11.7244H51.9112C53.7553 11.7244 55.1943 12.1467 56.2283 12.9911C57.2796 13.8356 57.8053 14.9817 57.8053 16.4293C57.8053 17.4978 57.5209 18.3854 56.9522 19.092C56.4007 19.7986 55.6596 20.2898 54.729 20.5655ZM48.1628 19.0662H51.0581C51.7819 19.0662 52.3334 18.911 52.7126 18.6009C53.109 18.2734 53.3071 17.7994 53.3071 17.1791C53.3071 16.5586 53.109 16.0846 52.7126 15.7572C52.3334 15.4298 51.7819 15.2661 51.0581 15.2661H48.1628V19.0662ZM51.42 26.3045C52.1611 26.3045 52.7298 26.1408 53.1261 25.8133C53.5398 25.4687 53.7466 24.9775 53.7466 24.3398C53.7466 23.7022 53.5312 23.2024 53.1003 22.8405C52.6867 22.4785 52.1094 22.2976 51.3683 22.2976H48.1628V26.3045H51.42ZM73.605 22.4268C73.605 22.8405 73.5792 23.2713 73.5275 23.7194H63.523C63.592 24.6156 63.8764 25.305 64.3761 25.7875C64.8931 26.2528 65.5222 26.4855 66.2633 26.4855C67.3663 26.4855 68.1332 26.0201 68.564 25.0895H73.269C73.0277 26.0374 72.5882 26.8905 71.9506 27.6488C71.3301 28.4071 70.546 29.0017 69.5981 29.4325C68.6502 29.8634 67.5903 30.0788 66.4184 30.0788C65.0052 30.0788 63.747 29.7772 62.6441 29.174C61.5411 28.5709 60.6794 27.7091 60.059 26.5888C59.4385 25.4687 59.1284 24.1589 59.1284 22.6595C59.1284 21.1602 59.43 19.8504 60.0331 18.7301C60.6535 17.6099 61.5153 16.7482 62.6182 16.145C63.7212 15.5418 64.988 15.2402 66.4184 15.2402C67.8144 15.2402 69.0552 15.5332 70.141 16.1191C71.2267 16.7051 72.0712 17.5409 72.6743 18.6267C73.2948 19.7125 73.605 20.9792 73.605 22.4268ZM69.081 21.2636C69.081 20.5052 68.8226 19.902 68.3055 19.4539C67.7884 19.0059 67.1422 18.7818 66.3667 18.7818C65.6256 18.7818 64.9965 18.9973 64.4796 19.4281C63.9798 19.8589 63.6695 20.4708 63.5489 21.2636H69.081ZM74.2826 22.6337C74.2826 21.1515 74.5584 19.8504 75.1098 18.7301C75.6786 17.6099 76.4455 16.7482 77.4106 16.145C78.3758 15.5418 79.4529 15.2402 80.642 15.2402C81.6588 15.2402 82.5464 15.447 83.3047 15.8606C84.0802 16.2743 84.6748 16.8172 85.0884 17.4893V15.447H89.509V29.872H85.0884V27.8298C84.6576 28.5019 84.0544 29.0448 83.2788 29.4584C82.5205 29.872 81.633 30.0788 80.6162 30.0788C79.4443 30.0788 78.3758 29.7772 77.4106 29.174C76.4455 28.5536 75.6786 27.6833 75.1098 26.563C74.5584 25.4256 74.2826 24.1158 74.2826 22.6337ZM85.0884 22.6595C85.0884 21.5565 84.7782 20.6862 84.1578 20.0486C83.5546 19.4109 82.8135 19.092 81.9346 19.092C81.0556 19.092 80.3059 19.4109 79.6855 20.0486C79.0824 20.6689 78.7808 21.5307 78.7808 22.6337C78.7808 23.7366 79.0824 24.6156 79.6855 25.2705C80.3059 25.9082 81.0556 26.227 81.9346 26.227C82.8135 26.227 83.5546 25.9082 84.1578 25.2705C84.7782 24.6329 85.0884 23.7625 85.0884 22.6595ZM91.0522 22.6595C91.0522 21.1602 91.3542 19.8504 91.9572 18.7301C92.578 17.6099 93.4313 16.7482 94.5171 16.145C95.6198 15.5418 96.8775 15.2402 98.291 15.2402C100.101 15.2402 101.609 15.7141 102.815 16.662C104.039 17.6099 104.839 18.9455 105.219 20.6689H100.514C100.118 19.566 99.351 19.0144 98.2135 19.0144C97.403 19.0144 96.7572 19.3333 96.2745 19.971C95.7917 20.5914 95.5503 21.4876 95.5503 22.6595C95.5503 23.8314 95.7917 24.7362 96.2745 25.3739C96.7572 25.9943 97.403 26.3045 98.2135 26.3045C99.351 26.3045 100.118 25.753 100.514 24.65H105.219C104.839 26.339 104.039 27.666 102.815 28.6312C101.591 29.5962 100.083 30.0788 98.291 30.0788C96.8775 30.0788 95.6198 29.7772 94.5171 29.174C93.4313 28.5709 92.578 27.7091 91.9572 26.5888C91.3542 25.4687 91.0522 24.1589 91.0522 22.6595ZM113.374 30.0788C111.961 30.0788 110.686 29.7772 109.549 29.174C108.428 28.5709 107.541 27.7091 106.885 26.5888C106.248 25.4687 105.929 24.1589 105.929 22.6595C105.929 21.1774 106.257 19.8762 106.911 18.756C107.567 17.6185 108.463 16.7482 109.6 16.145C110.738 15.5418 112.013 15.2402 113.426 15.2402C114.839 15.2402 116.115 15.5418 117.252 16.145C118.39 16.7482 119.286 17.6185 119.941 18.756C120.595 19.8762 120.923 21.1774 120.923 22.6595C120.923 24.1416 120.587 25.4514 119.915 26.5888C119.26 27.7091 118.355 28.5709 117.201 29.174C116.063 29.7772 114.788 30.0788 113.374 30.0788ZM113.374 26.2528C114.219 26.2528 114.934 25.9426 115.52 25.3222C116.123 24.7017 116.425 23.8142 116.425 22.6595C116.425 21.5048 116.132 20.6173 115.546 19.9968C114.978 19.3764 114.27 19.0662 113.426 19.0662C112.565 19.0662 111.849 19.3764 111.28 19.9968C110.712 20.6 110.427 21.4876 110.427 22.6595C110.427 23.8142 110.703 24.7017 111.254 25.3222C111.824 25.9426 112.53 26.2528 113.374 26.2528ZM131.282 15.2919C132.971 15.2919 134.315 15.8433 135.315 16.9464C136.331 18.0321 136.84 19.5315 136.84 21.4445V29.872H132.445V22.0391C132.445 21.0739 132.196 20.3242 131.695 19.79C131.196 19.2557 130.524 18.9886 129.68 18.9886C128.835 18.9886 128.163 19.2557 127.663 19.79C127.163 20.3242 126.913 21.0739 126.913 22.0391V29.872H122.492V15.447H126.913V17.36C127.361 16.7223 127.964 16.2225 128.723 15.8606C129.481 15.4815 130.334 15.2919 131.282 15.2919ZM145.004 30.0788C143.747 30.0788 142.626 29.8634 141.644 29.4325C140.661 29.0017 139.886 28.4157 139.317 27.6746C138.749 26.9164 138.43 26.0719 138.36 25.1412H142.729C142.781 25.641 143.014 26.046 143.428 26.3562C143.841 26.6664 144.35 26.8216 144.953 26.8216C145.505 26.8216 145.927 26.7182 146.219 26.5114C146.53 26.2873 146.685 26.0029 146.685 25.6582C146.685 25.2446 146.469 24.943 146.038 24.7535C145.608 24.5466 144.91 24.3226 143.944 24.0813C142.911 23.84 142.049 23.5901 141.359 23.3316C140.67 23.0559 140.076 22.6337 139.576 22.0649C139.076 21.4789 138.826 20.6948 138.826 19.7125C138.826 18.8852 139.05 18.1355 139.498 17.4634C139.964 16.774 140.635 16.2312 141.514 15.8348C142.41 15.4383 143.47 15.2402 144.694 15.2402C146.504 15.2402 147.926 15.6883 148.96 16.5844C150.011 17.4806 150.614 18.6698 150.77 20.152H146.685C146.616 19.6521 146.392 19.2557 146.012 18.9628C145.651 18.6698 145.168 18.5233 144.565 18.5233C144.048 18.5233 143.652 18.6267 143.376 18.8335C143.1 19.0231 142.963 19.2902 142.963 19.6349C142.963 20.0486 143.177 20.3587 143.608 20.5655C144.056 20.7723 144.746 20.9792 145.677 21.186C146.746 21.4618 147.616 21.7374 148.287 22.0132C148.96 22.2718 149.546 22.7026 150.046 23.3058C150.562 23.8918 150.829 24.6845 150.847 25.6841C150.847 26.5285 150.606 27.2869 150.123 27.959C149.658 28.6139 148.977 29.1309 148.081 29.5101C147.202 29.8892 146.176 30.0788 145.004 30.0788Z" fill="#383E47"/>
</g>
</g>
</g>
</g>
</svg>
