<svg width="160" height="41" viewBox="0 0 160 41" fill="none" xmlns="http://www.w3.org/2000/svg">
<g id="Frame">
<path id="Vector" fill-rule="evenodd" clip-rule="evenodd" d="M39.2547 14.2148C42.5095 14.2148 44.5385 15.6308 44.5385 17.9134C44.5385 19.4985 43.5663 20.7455 41.9812 21.1682C43.9045 21.5275 45.0669 22.9647 45.0669 24.9091C45.0669 27.4453 42.9111 29.0093 39.4872 29.0093H32.4492V14.2148H39.2547ZM39.0856 20.1749C40.3538 20.1749 41.1146 19.5619 41.1146 18.5263C41.1146 17.5118 40.3538 16.92 39.0856 16.9412H35.7886V20.1749H39.0856ZM39.0856 26.2829C40.6496 26.2829 41.6219 25.6277 41.6219 24.4864C41.6219 23.4085 40.6496 22.7533 39.0856 22.7745H35.7886V26.2829H39.0856ZM63.8914 29.0093H60.1082L57.7622 24.7823H54.3594V29.0093H51.0201V14.2148H57.4452C61.3129 14.2148 63.511 16.0746 63.511 19.3506C63.511 21.6332 62.5387 23.2817 60.7422 24.1271L63.8914 29.0093ZM54.3593 16.9835V21.9925H57.4452C59.2839 21.9925 60.3407 21.1471 60.3407 19.4563C60.3407 17.8077 59.2839 16.9835 57.4452 16.9835H54.3593ZM80.7712 29.0093L79.6087 26.135H72.7609L71.5985 29.0093H68.1535L74.5786 14.2148H78.0236L84.343 29.0093H80.7712ZM73.8601 23.4508H78.531L76.2061 17.7021L73.8601 23.4508ZM86.661 14.2148L92.4731 29.0093H95.9181L101.794 14.2148H98.3487L94.2907 25.3741L90.2539 14.2148H86.661ZM116.75 29.0093L115.588 26.135H108.74L107.578 29.0093H104.133L110.558 14.2148H114.003L120.322 29.0093H116.75ZM109.839 23.4508H114.51L112.185 17.7021L109.839 23.4508ZM131.665 14.2148C136.252 14.2148 139.443 17.2371 139.443 21.612C139.443 25.9659 136.209 29.0093 131.538 29.0093H125.388V14.2148H131.665ZM131.749 26.1984C134.222 26.1984 136.04 24.3385 136.04 21.6332C136.04 18.9068 134.137 17.0257 131.601 17.0257H128.727V26.1984H131.749ZM152.054 14.1091C156.577 14.1091 160 17.3216 160 21.6121C160 25.8813 156.577 29.1573 152.054 29.1573C147.531 29.1573 144.107 25.9025 144.107 21.6121C144.107 17.3005 147.531 14.1091 152.054 14.1091ZM152.096 17.0257C149.602 17.0257 147.531 19.0124 147.531 21.6121C147.531 24.2117 149.623 26.2406 152.096 26.2406C154.569 26.2406 156.577 24.2117 156.577 21.6121C156.577 19.0124 154.569 17.0257 152.096 17.0257Z" fill="#383E47"/>
<path id="Vector_2" d="M18.7864 12.5701V15.7403C18.7864 16.0926 18.7863 16.3274 18.669 16.6797C18.3167 17.9712 17.0252 18.9106 15.7336 18.9106H3.17021C1.76123 18.9106 0.587078 17.9712 0.23484 16.6797C1.3411e-07 16.3274 0 15.9752 0 15.7403V12.5701H3.17021V14.4488C3.17021 15.1533 3.75728 15.7403 4.46177 15.7403H14.4421C15.1465 15.7403 15.7336 15.1533 15.7336 14.4488V12.5701H18.7864Z" fill="#383E47"/>
<path id="Vector_3" d="M13.6201 21.9648L10.2151 28.1879H9.3932H8.57129L5.16626 21.9648H0L1.76123 25.1351H3.28762L6.69266 31.358H9.3932H12.0937L15.4987 25.1351H17.0252L18.7864 21.9648H13.6201Z" fill="#383E47"/>
</g>
</svg>
