<svg width="147" height="41" viewBox="0 0 147 41" fill="none" xmlns="http://www.w3.org/2000/svg">
<g id="Frame">
<g id="Clip path group">
<mask id="mask0_0_59" style="mask-type:luminance" maskUnits="userSpaceOnUse" x="0" y="1" width="146" height="40">
<g id="clip0_88_194709">
<path id="Vector" d="M145.843 1.90601H0.709045V40.0219H145.843V1.90601Z" fill="white"/>
</g>
</mask>
<g mask="url(#mask0_0_59)">
<g id="Group">
<path id="Vector_2" d="M56.5314 26.2577C53.9643 26.2577 52.1103 24.1959 52.1103 21.3979C52.1103 18.5998 53.9643 16.5381 56.5314 16.5381C58.6707 16.5381 60.325 17.9518 60.81 20.0724H63.8619C63.2914 16.3319 60.3821 13.74 56.5314 13.74C52.2529 13.74 49.1153 16.9799 49.1153 21.3979C49.1153 25.8159 52.2529 29.0556 56.5314 29.0556C60.3821 29.0556 63.2914 26.4638 63.8619 22.7232H60.81C60.325 24.8144 58.6707 26.2577 56.5314 26.2577Z" fill="#383E47"/>
<path id="Vector_3" d="M67.8848 28.7597L69.0543 25.8143H76.5845L77.7539 28.7597H80.8345L74.9871 14.033H70.7087L64.8614 28.7597H67.8848ZM70.1097 23.1636L72.6768 16.6839H72.962L75.5291 23.1636H70.1097Z" fill="#383E47"/>
<path id="Vector_4" d="M89.5275 26.2561C87.2172 26.2561 85.5342 24.3417 85.5342 21.6909V14.033H82.6817V21.6909C82.6817 25.9321 85.5914 29.0541 89.5275 29.0541C93.4638 29.0541 96.3732 25.9321 96.3732 21.6909V14.033H93.5208V21.6909C93.5208 24.3417 91.8379 26.2561 89.5275 26.2561Z" fill="#383E47"/>
<path id="Vector_5" d="M106.498 26.4049C104.102 26.4049 102.505 25.5801 102.505 24.3432H99.6524C99.6524 27.1706 102.391 29.0556 106.498 29.0556C110.948 29.0556 113.344 27.3768 113.344 24.2548C113.344 21.2505 111.347 19.9252 106.641 19.9252C103.931 19.9252 102.79 19.4834 102.79 18.3642C102.79 17.0683 104.074 16.3907 106.498 16.3907C108.723 16.3907 110.206 17.2155 110.206 18.4525H113.058C113.058 15.625 110.434 13.74 106.498 13.74C102.22 13.74 99.9377 15.36 99.9377 18.3642C99.9377 21.3389 101.877 22.576 106.384 22.576C109.236 22.576 110.491 23.0766 110.491 24.2548C110.491 25.6391 109.094 26.4049 106.498 26.4049Z" fill="#383E47"/>
<path id="Vector_6" d="M118.224 28.7597L119.395 25.8143H126.924L128.093 28.7597H131.175L125.326 14.033H121.049L115.201 28.7597H118.224ZM120.45 23.1636L123.017 16.6839H123.302L125.869 23.1636H120.45Z" fill="#383E47"/>
<path id="Vector_7" d="M133.887 28.7597H145.297V26.1089H136.74V14.033H133.887V28.7597Z" fill="#383E47"/>
<path id="Vector_8" opacity="0.8" fill-rule="evenodd" clip-rule="evenodd" d="M19.1654 40.022C29.3586 40.022 37.6217 31.4895 37.6217 20.964C37.6217 10.4385 29.3586 1.90601 19.1654 1.90601C8.97221 1.90601 0.709045 10.4385 0.709045 20.964C0.709045 31.4895 8.97221 40.022 19.1654 40.022ZM19.1654 32.8975C25.5479 32.8975 30.7221 27.5547 30.7221 20.964C30.7221 14.3733 25.5479 9.03049 19.1654 9.03049C12.7828 9.03049 7.60859 14.3733 7.60859 20.964C7.60859 27.5547 12.7828 32.8975 19.1654 32.8975Z" fill="#99A2AF"/>
</g>
</g>
</g>
</g>
</svg>
