<svg width="110" height="41" viewBox="0 0 110 41" fill="none" xmlns="http://www.w3.org/2000/svg">
<g id="Frame">
<g id="Clip path group">
<mask id="mask0_0_23" style="mask-type:luminance" maskUnits="userSpaceOnUse" x="0" y="2" width="110" height="38">
<g id="clip0_88_194706">
<path id="Vector" d="M110 2.63062H0V39.2973H110V2.63062Z" fill="white"/>
</g>
</mask>
<g mask="url(#mask0_0_23)">
<g id="Group">
<path id="Vector_2" d="M42.1128 34.5285C38.0398 31.8978 32.5124 31.4365 23.5979 33.9156C14.0944 36.155 10.9263 37.5909 6.76486 34.7091C5.1662 33.2937 4.59352 31.0145 5.02113 27.7314C6.01355 22.379 8.69627 17.2285 13.461 11.5152C16.1207 8.54324 18.5877 5.99273 21.8454 4.96861C24.3422 4.32616 24.109 6.29362 23.8069 6.57489C23.4879 6.57489 22.9526 6.62524 22.5387 6.89627C22.2027 7.15793 21.2803 8.00088 21.2313 9.13564C21.1598 10.8725 22.9526 10.511 23.7258 9.55741C24.5591 8.48265 25.7906 6.42474 24.8221 4.50675C24.4158 3.8239 23.7141 3.35238 22.8428 3.1914C19.86 3.02076 17.0819 4.44645 14.5179 6.02259C8.91081 9.92854 4.42539 15.3409 1.88745 21.2653C0.42393 24.8399 -0.899189 29.9599 1.08476 34.1269C2.6192 37.0184 5.80514 38.5545 9.60549 38.2337C12.271 37.9524 15.4943 37.0887 17.6624 36.5668C19.8308 36.0447 30.9281 32.2192 34.5743 38.877C34.5743 38.877 35.7868 36.5171 38.8171 36.4664C41.3084 36.2361 44.9024 37.1902 47.5194 39.1176C46.6473 37.8026 44.1753 35.8646 42.1128 34.5285Z" fill="#383E47"/>
<path id="Vector_3" d="M24.7315 12.1892C22.6559 10.8235 18.4843 13.4341 15.1427 17.9122C12.087 21.9291 10.768 26.5978 12.2037 28.7564C14.3395 31.2963 18.3045 27.6023 19.991 25.6243L20.2087 25.3928C21.3552 24.1579 22.2411 22.6716 23.0984 21.2459C23.0984 21.2459 23.8862 19.9405 23.9238 19.8803C24.4113 19.7901 24.998 19.6496 25.6588 19.4588C25.6495 19.4889 23.1293 23.7364 23.3865 25.8447C23.4665 26.4877 23.4052 28.8377 25.693 29.5501C28.742 30.0623 31.1766 27.6921 33.3243 25.5833C33.3243 25.5833 33.6906 25.2324 33.8976 25.0322C33.845 25.242 33.7767 25.523 33.7767 25.523C32.8841 28.6361 34.0873 29.2888 34.8404 29.5294C37.115 30.1929 39.8325 26.8785 39.8413 26.8785C39.7709 27.9225 39.5651 28.7862 40.6623 29.479C41.6979 29.8507 42.7461 29.2841 43.5429 28.752C46.4128 26.7236 48.7245 23.55 50.592 20.8057H49.4008C49.3868 20.8057 46.4618 25.0571 44.5619 25.9811C44.559 25.9811 44.2134 26.1593 44.0143 26.0183C43.7677 25.8072 43.8649 25.3688 44.0173 25.0582C44.0269 25.0386 51.3518 12.2996 51.3518 12.2996H47.8932C47.8932 12.2996 47.5152 12.9125 47.4849 12.9523C47.4615 12.9327 47.4061 12.827 47.3678 12.7764C45.2251 9.80439 40.3731 14.3759 36.7201 19.6774C35.3135 21.716 33.5228 24.011 31.6664 25.6676C31.6664 25.6676 28.916 28.1965 27.7405 26.3797C27.3109 25.6167 27.4431 24.5001 27.6857 23.7678C29.054 19.8618 31.4119 16.317 34.0949 14.1778C34.8523 13.5862 35.6757 13.415 36.0838 13.6659C36.4729 13.8971 36.5359 14.4687 36.2896 14.8606C35.6647 14.841 35.1644 15.031 34.7572 15.4527C33.9554 16.2963 33.6766 17.1096 33.9314 17.873C35.1699 19.64 37.6398 16.1461 37.5202 14.0174C37.4776 13.254 37.0713 12.5311 36.4656 12.1796C35.5622 11.6375 34.1848 11.778 33.2931 12.21C32.0993 12.6616 30.2099 14.2378 29.1069 15.463C27.7181 16.9996 25.3369 18.7063 24.5923 18.5151C24.8363 17.8619 26.8474 13.7349 24.7315 12.1892ZM41.4046 18.2939C42.0774 17.3602 44.0356 14.8603 44.5123 14.4386C46.1177 13.0225 46.7595 13.6457 46.8153 14.0867C45.317 16.7774 43.5488 19.8604 41.8856 22.6318C41.8894 22.6219 41.3652 23.425 41.3652 23.425C40.6311 24.5495 39.8915 25.5134 38.6854 26.1863C38.5138 26.2366 38.23 26.2565 38.0415 26.116C37.8147 25.965 37.7248 25.7141 37.7502 25.4528C37.8229 24.5893 38.6997 21.949 41.4046 18.2939ZM22.5911 19.9104C22.5911 19.9104 22.5607 20.0011 22.5461 20.031C22.5423 20.031 21.0383 22.491 21.0383 22.491C20.1308 23.7054 18.9971 25.2321 17.5806 25.965C17.1608 26.1052 16.58 26.1959 16.2846 25.8248C15.6579 25.0714 15.9808 24.0268 16.2434 23.1838L16.336 22.8827C17.089 20.8347 18.2834 19.0274 19.4457 17.3505C19.4606 17.3406 19.4927 17.3306 19.5047 17.3306C19.5073 17.3409 19.5117 17.3409 19.514 17.3608C20.2437 18.7663 21.6115 19.4187 22.634 19.7207C22.6401 19.7207 22.6471 19.7307 22.6471 19.7512C22.6477 19.7799 22.6308 19.8203 22.5911 19.9104ZM24.0158 17.009C24.0097 17.0289 23.3462 18.555 23.3462 18.555C23.2502 18.6352 23.0984 18.5953 22.925 18.555L22.6273 18.5046C21.6921 18.2137 20.9869 17.5911 20.7697 16.8483C20.47 15.4027 21.7017 14.2679 22.2443 13.8561C22.7651 13.4943 23.575 13.3035 24.0447 13.6752C24.3345 14.0168 24.4446 14.4585 24.4446 14.9405C24.4446 15.5929 24.2437 16.3261 24.0158 17.009Z" fill="#383E47"/>
<path id="Vector_4" d="M67.735 21.6671C67.4008 20.9441 66.6101 20.4826 65.7662 20.5326C63.0266 20.7835 60.3471 23.0427 58.9399 26.2857C58.2017 27.952 57.7986 29.3282 57.5348 31.517C58.3865 30.5335 60.1241 28.9164 62.0958 28.0328C62.0958 28.0328 62.3643 25.9345 63.7324 24.0671C64.2499 23.293 65.2864 22.0487 66.4498 22.3795C67.4662 22.7214 67.1089 25.5432 65.7584 28.2734C64.7584 30.2815 63.2289 32.2909 61.6807 33.6762C60.3123 34.8408 58.2878 36.2463 56.5169 35.1619C55.4016 34.4992 54.8325 33.1136 54.9527 31.3264C55.486 26.2559 57.7872 21.9381 61.0815 17.018C64.4781 12.4497 68.2222 7.76052 73.2657 5.26007C74.294 4.73791 75.2473 4.61733 76.0704 4.93899C76.0704 4.93899 71.3357 7.54949 69.0788 12.3791C68.5047 13.6046 67.7061 15.2607 68.5105 16.7268C68.9303 17.4895 69.6769 17.5501 70.2776 17.5097C73.0441 16.867 74.8316 14.2767 76.2916 11.907C77.1384 10.1097 77.8909 8.32249 77.8909 6.33454C77.8909 6.09365 77.8786 5.77228 77.8579 5.5314C79.1799 4.82865 81.8897 6.07346 81.8897 6.07346C84.0077 6.7765 88.5167 10.2411 90.0383 10.9034C90.7803 10.04 91.9998 8.73489 92.686 8.0819L91.6924 7.4693C90.1014 6.49522 88.4192 5.5715 86.7634 4.65801C83.0039 2.59981 79.944 3.32246 78.3862 3.88472C77.7736 4.1057 77.2143 4.29654 77.2143 4.29654C76.0581 3.03124 74.1626 3.15153 72.7662 3.4931C67.7426 4.9387 63.0791 8.46298 58.0791 14.5781C54.4031 19.3677 52.1226 23.5046 50.9075 27.5911C49.9705 30.3418 49.6856 34.3886 51.9723 36.7883C53.9165 38.8263 56.4942 38.3847 58.3147 37.6524C62.2589 35.7039 65.8036 31.507 67.5695 26.6771C67.9957 25.242 68.4688 23.2137 67.735 21.6671ZM76.8042 6.53591C76.282 12.5404 71.6279 16.065 70.4758 16.346C69.7779 16.4862 68.587 16.175 69.6498 13.6553C71.2157 10.2613 73.8885 7.38003 76.7572 5.9037C76.827 6.15453 76.8249 6.31464 76.8042 6.53591Z" fill="#383E47"/>
<path id="Vector_5" d="M104.414 7.29897C101.911 8.72525 99.3151 9.64869 96.1732 9.32732C95.3028 10.3116 94.4549 11.3255 93.6738 12.3699C98.0831 13.4944 102.758 10.9942 105.365 8.61491C108.123 6.21514 109.538 3.19312 109.538 3.19312C109.538 3.19312 107.47 5.56215 104.414 7.29897Z" fill="#383E47"/>
<path id="Vector_6" d="M57.0978 12.2986H53.8135L51.9609 15.3171H55.2447L57.0978 12.2986Z" fill="#383E47"/>
<path id="Vector_7" d="M96.1614 34.8072C95.8079 35.0484 95.312 34.8628 95.4973 34.3114C95.9597 32.9053 97.7965 30.0408 97.7965 30.0408L102.913 20.941H99.4083C99.2416 21.2156 98.8852 21.8449 98.8852 21.8449C98.7232 21.5744 98.2384 20.9724 98.0388 20.8421C97.1827 20.2995 95.9267 20.5559 95.0601 21.0479C91.2924 23.2568 88.5428 27.622 86.3744 31.0263C86.3744 31.0263 84.0925 34.8102 82.8254 35.0914C81.8362 35.1719 81.9386 33.8361 81.981 33.5244C82.3636 31.275 83.2518 29.1369 84.1465 27.1985C85.9661 25.934 88.0434 24.2771 89.9305 22.4598C94.0262 18.5334 97.4798 14.0854 97.9848 13.0914C97.9848 13.0914 97.4384 13.2017 96.793 13.2216C93.6421 17.6298 87.1932 24.0356 85.2384 24.9898C86.1044 22.9009 91.7002 12.9304 96.4617 8.16098L97.2107 7.43774C98.3698 6.30328 99.5697 5.13866 100.505 4.94783C100.604 4.93758 100.731 4.94783 100.841 5.17905C100.883 6.06268 100.555 6.71538 100.178 7.45823L99.6509 8.54294C99.6509 8.54294 100.398 8.40245 100.888 8.24118C101.457 7.1673 102.087 5.962 101.855 4.52665C101.777 4.06449 101.444 3.71326 101.009 3.63306C99.5884 3.36174 98.0396 4.41572 96.7945 5.26949L96.7437 5.29935C90.3403 10.3298 84.9331 17.5795 80.206 27.4797C79.8633 27.7405 78.5396 28.0519 78.3149 27.9009C78.7819 26.9371 79.3694 25.6413 79.6637 24.2361C79.7147 23.8343 79.762 23.4233 79.762 23.0215C79.762 22.1577 79.5551 21.3444 78.783 20.7824C77.8776 20.3305 76.7591 20.5415 76.0046 20.8828C72.6254 22.2889 70.1 25.7631 68.2772 28.6239C67.2973 30.4423 66.3195 32.3887 66.0489 34.6182C65.8583 36.3652 66.2463 37.4897 67.2366 38.052C68.2553 38.5739 69.5373 38.0315 70.0408 37.7707C73.4643 35.9631 75.8563 32.3384 77.7419 29.0248C77.8169 29.0152 78.8458 28.9847 79.6246 28.7843C79.6348 28.7843 79.6394 28.7843 79.6567 28.7945C79.612 28.9449 79.2095 30.1499 79.2095 30.1499C78.0145 33.664 77.4623 36.0541 78.5907 37.4695C80.2037 39.468 82.8741 37.3999 85.0463 34.6679C84.5796 37.9414 86.272 38.4541 87.5612 38.203C89.0425 37.8015 90.6932 36.2145 91.4594 35.4014C91.213 36.3556 91.2804 38.0625 92.6275 38.2329C93.551 38.4044 94.2422 37.9007 95.042 37.4687C97.9112 35.9022 101.346 30.6818 102.237 29.1727H101.068C99.8029 31.0939 98.19 33.6119 96.1614 34.8072ZM70.4088 34.4581C70.2267 34.1864 70.1666 33.8908 70.1602 33.57C70.1251 31.6008 72.2372 28.0756 73.729 26.1547C73.7323 26.1547 73.7323 26.1547 73.7323 26.1547C74.3572 27.5269 75.772 28.4087 76.6263 28.7799C75.5653 31.1498 71.9269 36.225 70.4088 34.4581ZM77.225 27.7212C77.1237 27.7914 75.3397 27.1894 74.995 25.5322C74.7022 24.1059 75.6818 22.9913 76.6295 22.4294C77.0367 22.108 77.6491 21.9976 78.0983 22.1577C78.5154 22.4396 78.6281 22.9416 78.6281 23.4828C78.6281 23.815 78.5849 24.1562 78.5457 24.4671C78.5457 24.4671 78.5385 24.5277 78.5373 24.5373C78.2399 25.6516 77.7851 26.7463 77.225 27.7212ZM91.5358 33.8258L91.1975 34.1264C90.7162 34.5587 90.2209 35.02 89.6228 34.7894C89.4576 34.7288 89.3412 34.5081 89.3131 34.3369C89.286 33.102 89.8409 31.9576 90.3785 30.8427L90.5163 30.5518C92.0636 27.9609 93.8619 24.909 96.5032 22.7903C96.948 22.4683 97.4314 22.1976 97.941 22.4086C98.0583 22.5186 98.1949 22.7095 98.1949 22.9006C98.1949 22.9606 98.1412 23.1213 98.1103 23.1716C97.3733 24.367 96.6704 25.6217 95.9874 26.8267C94.6526 29.2069 93.2676 31.6661 91.5358 33.8258Z" fill="#383E47"/>
</g>
</g>
</g>
</g>
</svg>
