<svg width="111" height="41" viewBox="0 0 111 41" fill="none" xmlns="http://www.w3.org/2000/svg">
<g id="Frame">
<g id="Clip path group">
<mask id="mask0_0_86" style="mask-type:luminance" maskUnits="userSpaceOnUse" x="0" y="7" width="111" height="31">
<g id="clip0_88_194710">
<path id="Vector" d="M110.463 7.65405H0.207031V37.2751H110.463V7.65405Z" fill="white"/>
</g>
</mask>
<g mask="url(#mask0_0_86)">
<g id="Group">
<path id="Vector_2" opacity="0.5" fill-rule="evenodd" clip-rule="evenodd" d="M80.5942 13.5588C80.1499 14.0031 79.7509 14.491 79.4037 15.0151C78.5436 13.7183 77.376 12.6545 76.0049 11.9186C74.6338 11.1827 73.102 10.7975 71.5459 10.7975H51.9549V13.1943C50.2276 11.6502 47.992 10.7966 45.6752 10.7966H35.5111C33.9552 10.7966 32.4235 11.1816 31.0526 11.9174C29.6816 12.6532 28.5141 13.7169 27.6542 15.0135C26.7944 13.7166 25.6269 12.6528 24.256 11.917C22.885 11.1812 21.3531 10.7963 19.7972 10.7966H0.207031V37.2745H19.7997C21.3558 37.2746 22.8877 36.8895 24.2587 36.1533C25.6297 35.4172 26.7971 34.3531 27.6566 33.056C28.5162 34.3531 29.6836 35.4172 31.0546 36.1533C32.4256 36.8895 33.9575 37.2746 35.5136 37.2745H45.6769C47.9939 37.2745 50.2286 36.4212 51.9557 34.8777V37.2745H68.0374V32.1953H71.5483C72.8726 32.1955 74.1821 31.9167 75.3914 31.377C76.6007 30.8373 77.6827 30.0488 78.5669 29.0629H84.3035V37.2745H100.385V29.0629H106.851V10.7966H87.2598C86.0218 10.7967 84.7959 11.0407 83.6522 11.5146C82.5086 11.9886 81.4694 12.6832 80.5942 13.5588Z" fill="#99A2AF"/>
<path id="Vector_3" d="M22.9421 9.22632H4.92188V32.561H22.9421C25.026 32.5609 27.0245 31.7334 28.4985 30.2605C29.9715 28.7865 30.799 26.7879 30.7991 24.7041V17.0849C30.7992 16.053 30.5961 15.0313 30.2013 14.0779C29.8064 13.1246 29.2277 12.2583 28.4981 11.5287C27.7685 10.799 26.9023 10.2202 25.949 9.82529C24.9957 9.43039 23.974 9.22632 22.9421 9.22632Z" fill="#FAFAFA"/>
<path id="Vector_4" fill-rule="evenodd" clip-rule="evenodd" d="M3.35156 7.65405H22.9442C25.4446 7.65405 27.8425 8.64733 29.6106 10.4154C31.3786 12.1834 32.3719 14.5814 32.3719 17.0818V24.7026C32.3719 27.203 31.3786 29.6009 29.6106 31.369C27.8425 33.137 25.4446 34.1303 22.9442 34.1303H3.35239L3.35156 7.65405ZM6.49468 10.7972V30.988H22.9442C23.7697 30.988 24.5871 30.8254 25.3497 30.5095C26.1123 30.1935 26.8053 29.7305 27.3889 29.1467C27.9726 28.563 28.4356 27.87 28.7514 27.1073C29.0672 26.3446 29.2297 25.5272 29.2296 24.7017V17.0826C29.229 15.8397 28.8602 14.6249 28.1697 13.5914C27.4793 12.558 26.4981 11.7523 25.3501 11.276C24.5873 10.9602 23.7698 10.7978 22.9442 10.798L6.49468 10.7972Z" fill="#383E47"/>
<path id="Vector_5" fill-rule="evenodd" clip-rule="evenodd" d="M19.4355 26.7733V16.406H22.5787V26.7733H19.4355Z" fill="#383E47"/>
<path id="Vector_6" d="M74.6938 9.22632H56.6719V32.561H69.6113V27.4819H74.6938C76.7769 27.4812 78.7746 26.6534 80.2476 25.1804C81.7206 23.7074 82.5484 21.7097 82.5491 19.6265V17.0841C82.5492 16.0524 82.3461 15.0308 81.9514 14.0776C81.5567 13.1244 80.9781 12.2583 80.2487 11.5287C79.5192 10.7991 78.6532 10.2204 77.7001 9.82547C76.747 9.43056 75.7255 9.22643 74.6938 9.22632Z" fill="#FAFAFA"/>
<path id="Vector_7" fill-rule="evenodd" clip-rule="evenodd" d="M55.1016 7.65405H74.6942C77.1946 7.65405 79.5925 8.64733 81.3606 10.4154C83.1286 12.1834 84.1219 14.5814 84.1219 17.0818V19.6242C84.1215 22.1245 83.128 24.5222 81.3601 26.2901C79.5922 28.0581 77.1944 29.0515 74.6942 29.0519H71.1825V34.1303H55.1016V7.65405ZM58.2447 10.7972V30.988H68.0393V25.9096H74.6942C76.3609 25.9091 77.9592 25.2471 79.1382 24.069C80.3163 22.8901 80.9783 21.2917 80.9788 19.625V17.0826C80.9785 15.416 80.3168 13.8177 79.139 12.6386C77.9598 11.4603 76.3612 10.7983 74.6942 10.798L58.2439 10.7964L58.2447 10.7972Z" fill="#383E47"/>
<path id="Vector_8" fill-rule="evenodd" clip-rule="evenodd" d="M71.1953 22.7492V16.4021H74.3384V22.7492H71.1953Z" fill="#383E47"/>
<path id="Vector_9" d="M48.823 9.22632H38.6589C37.1049 9.22563 35.5856 9.68609 34.2934 10.5494C33.0013 11.4127 31.9943 12.64 31.4001 14.0759C31.0054 15.0291 30.8024 16.0507 30.8027 17.0824V24.7032C30.803 26.7868 31.6307 28.785 33.1039 30.2584C34.5772 31.7318 36.5753 32.5598 38.6589 32.5602H48.823C50.9068 32.56 52.9053 31.7326 54.3794 30.2596C55.8527 28.7858 56.6805 26.7872 56.6808 24.7032V17.0841C56.6808 15.0001 55.8529 13.0014 54.3793 11.5278C52.9057 10.0542 50.907 9.22632 48.823 9.22632Z" fill="#FAFAFA"/>
<path id="Vector_10" fill-rule="evenodd" clip-rule="evenodd" d="M31.9893 10.4154C33.7574 8.64735 36.1553 7.65407 38.6557 7.65405H48.8223C50.0603 7.65405 51.2863 7.89791 52.4301 8.37169C53.5739 8.84548 54.6132 9.53992 55.4887 10.4154C56.3641 11.2908 57.0586 12.3301 57.5323 13.4739C58.0061 14.6177 58.25 15.8437 58.25 17.0818V24.7026C58.25 27.203 57.2567 29.6009 55.4887 31.369C53.7206 33.137 51.3227 34.1303 48.8223 34.1303H38.6582C36.1578 34.1303 33.7598 33.137 31.9918 31.369C30.2237 29.6009 29.2305 27.203 29.2305 24.7026V17.0834C29.2299 15.8452 29.4733 14.6191 29.9467 13.475C30.42 12.3309 31.1141 11.2912 31.9893 10.4154ZM38.6557 10.7964C36.9887 10.7966 35.39 11.4586 34.2109 12.637C33.0326 13.8161 32.3706 15.4148 32.3703 17.0818V24.7026C32.3705 26.3696 33.0329 27.9684 34.2118 29.1471C35.3907 30.3258 36.9895 30.988 38.6565 30.988H48.8223C50.0654 30.9877 51.2806 30.6189 52.3143 29.9283C53.3479 29.2376 54.1536 28.2561 54.6296 27.1076C54.9453 26.3451 55.1078 25.5279 55.1077 24.7026V17.0834C55.1073 15.8404 54.7385 14.6254 54.0481 13.5918C53.3576 12.5582 52.3763 11.7523 51.2282 11.276C50.4654 10.9602 49.6479 10.7978 48.8223 10.798L38.6557 10.7964Z" fill="#383E47"/>
<path id="Vector_11" fill-rule="evenodd" clip-rule="evenodd" d="M42.1626 16.406V26.7733H39.0195V16.406H42.1626Z" fill="#383E47"/>
<path id="Vector_12" d="M108.429 9.22632H90.4058C89.3741 9.22615 88.3525 9.42931 87.3994 9.8242C86.4463 10.2191 85.5803 10.7979 84.851 11.5277C84.1212 12.2569 83.5422 13.1229 83.1472 14.076C82.7522 15.0291 82.5489 16.0507 82.5488 17.0824V24.3486H89.0144V32.5602H101.954V24.3486H108.419L108.429 9.22632Z" fill="#FAFAFA"/>
<path id="Vector_13" fill-rule="evenodd" clip-rule="evenodd" d="M83.7422 10.4154C85.5105 8.6473 87.9088 7.65403 90.4094 7.65405H110.001V25.9187H103.536V34.1303H87.4539V25.9187H80.9883V17.0826C80.9863 14.583 81.9768 12.1849 83.7422 10.4154ZM90.4094 10.7964C89.5839 10.7964 88.7665 10.959 88.0039 11.2749C87.2412 11.5908 86.5483 12.0538 85.9647 12.6376C85.381 13.2213 84.918 13.9143 84.6022 14.677C84.2864 15.4397 84.1239 16.2571 84.124 17.0826V22.7764H90.5896V30.988H100.387V22.7764H106.852V10.7964H90.4094Z" fill="#383E47"/>
</g>
</g>
</g>
</g>
</svg>
