<svg width="16" height="18" viewBox="0 0 16 18" fill="none" xmlns="http://www.w3.org/2000/svg">
<g id="Frame">
<g id="Group" opacity="0.9">
<path id="Vector" fill-rule="evenodd" clip-rule="evenodd" d="M8 2.0791C4.13558 2.0791 1 5.21468 1 9.0791C1 12.9435 4.13558 16.0791 8 16.0791C11.8568 16.0791 15 12.9435 15 9.0791C15 5.21468 11.8568 2.0791 8 2.0791ZM12.6236 5.30578C13.4588 6.32314 13.9599 7.6214 13.9751 9.02595C13.7777 8.98801 11.8037 8.5856 9.81453 8.83616C9.76899 8.73746 9.73101 8.63115 9.68547 8.52488C9.56398 8.23639 9.42734 7.94029 9.29067 7.65937C11.4924 6.7635 12.4946 5.47281 12.6236 5.30578ZM8 3.11164C9.51843 3.11164 10.9078 3.68106 11.9631 4.6149C11.8568 4.76674 10.9533 5.9739 8.82753 6.77107C7.84814 4.97172 6.76249 3.49884 6.59545 3.27107C7.04336 3.16478 7.51411 3.11164 8 3.11164ZM5.45664 3.67346C5.61606 3.88604 6.67897 5.36652 7.67354 7.1279C4.87961 7.87195 2.41215 7.85677 2.14642 7.85677C2.53362 6.00426 3.78633 4.46305 5.45664 3.67346ZM2.01735 9.08671C2.01735 9.02595 2.01735 8.96522 2.01735 8.9045C2.27549 8.91206 5.17571 8.95004 8.15943 8.05417C8.33408 8.3882 8.4935 8.72985 8.64536 9.07149C8.56941 9.09428 8.48589 9.11708 8.40998 9.13983C5.32755 10.1344 3.68764 12.8524 3.55098 13.0801C2.60195 12.0248 2.01735 10.6203 2.01735 9.08671ZM8 15.0617C6.6182 15.0617 5.34273 14.591 4.33297 13.8014C4.43926 13.5813 5.65399 11.2429 9.02493 10.0661C9.04011 10.0585 9.04773 10.0585 9.06291 10.0509C9.90562 12.2298 10.2473 14.0595 10.3384 14.5834C9.61713 14.8947 8.82753 15.0617 8 15.0617ZM11.333 14.0368C11.2722 13.6723 10.9533 11.9261 10.1714 9.77757C12.0467 9.48147 13.6865 9.9674 13.8916 10.0357C13.6334 11.6984 12.6768 13.1333 11.333 14.0368Z" fill="#9098A0"/>
</g>
</g>
</svg>
