<svg width="191" height="41" viewBox="0 0 191 41" fill="none" xmlns="http://www.w3.org/2000/svg">
<g id="Frame">
<g id="Clip path group">
<mask id="mask0_0_104" style="mask-type:luminance" maskUnits="userSpaceOnUse" x="0" y="0" width="191" height="41">
<g id="clip0_272_163129">
<path id="Vector" d="M190.191 0.9646H0.191406V40.9646H190.191V0.9646Z" fill="white"/>
</g>
</mask>
<g mask="url(#mask0_0_104)">
<g id="Clip path group_2">
<mask id="mask1_0_104" style="mask-type:luminance" maskUnits="userSpaceOnUse" x="0" y="11" width="191" height="20">
<g id="clip1_272_163129">
<path id="Vector_2" d="M190.191 11.771H0.191406V30.1581H190.191V11.771Z" fill="white"/>
</g>
</mask>
<g mask="url(#mask1_0_104)">
<g id="Group">
<path id="Vector_3" d="M13.1977 11.771V18.7439H5.38249V11.771H0.191406V30.1581H5.38249V23.1279H13.2022V30.1581H18.3932V11.771H13.1977Z" fill="#383E47"/>
<path id="Vector_4" d="M30.2186 17.3149L26.3507 11.771H19.9688L27.4621 22.0738V30.1581H32.6796V22.0473L40.1686 11.771H34.0822L30.2186 17.3149Z" fill="#383E47"/>
<path id="Vector_5" d="M52.0812 11.771H41.752V30.1581H46.9431V24.3716H52.0812C56.8092 24.3716 59.3011 22.1796 59.3011 18.0735C59.3011 13.9674 56.8136 11.771 52.0812 11.771ZM53.9953 18.0779C53.9953 19.4319 53.2103 20.0494 51.4549 20.0494H46.9342V16.0976H51.4549C53.2147 16.0976 53.9953 16.6886 53.9953 18.0691V18.0779Z" fill="#383E47"/>
<path id="Vector_6" d="M61.3242 30.1581H78.2827V25.8888H66.5154V22.9117H76.5226V18.96H66.5154V16.0403H78.2827V11.771H61.3242V30.1581Z" fill="#383E47"/>
<path id="Vector_7" d="M98.4423 17.8001C98.4423 13.8571 96.091 11.771 91.5709 11.771H80.6152V30.1581H85.8065V23.8027H89.1315L93.2954 30.1581L93.3085 30.1493H99.3371L94.817 23.3396C97.1943 22.5281 98.4377 20.6625 98.4377 17.7957L98.4423 17.8001ZM90.8607 19.5863H85.8065V16.0138H90.8607C92.4266 16.0138 93.1583 16.5828 93.1583 17.8001C93.1583 19.0173 92.4266 19.5863 90.8607 19.5863Z" fill="#383E47"/>
<path id="Vector_8" d="M106.307 11.771H101.115V30.1581H117.121V25.7521H106.307V11.771Z" fill="#383E47"/>
<path id="Vector_9" d="M124.644 11.771H119.453V30.1581H124.644V11.771Z" fill="#383E47"/>
<path id="Vector_10" d="M141.096 22.0473L133.686 11.771H127.789V30.1581H132.738V18.2896L141.307 30.1581H146.044V11.771H141.096V22.0473Z" fill="#383E47"/>
<path id="Vector_11" d="M149.189 30.1581H166.143V25.8888H154.381V22.9117H164.388V18.96H154.381V16.0403H166.143V11.771H149.189V30.1581Z" fill="#383E47"/>
<path id="Vector_12" d="M189.721 11.771H171.334V30.1581H189.721V11.771Z" fill="#383E47"/>
</g>
</g>
</g>
</g>
</g>
</g>
</svg>
