<svg width="16" height="18" viewBox="0 0 16 18" fill="none" xmlns="http://www.w3.org/2000/svg">
<g id="Frame">
<g id="Group" opacity="0.9">
<path id="Vector" d="M13.9637 2.0791H2.03359C1.46211 2.0791 1 2.53027 1 3.08809V15.0674C1 15.6252 1.46211 16.0791 2.03359 16.0791H13.9637C14.5352 16.0791 15 15.6252 15 15.0701V3.08809C15 2.53027 14.5352 2.0791 13.9637 2.0791ZM5.15352 14.0091H3.07539V7.32637H5.15352V14.0091ZM4.11445 6.41582C3.44727 6.41582 2.90859 5.87715 2.90859 5.2127C2.90859 4.54824 3.44727 4.00957 4.11445 4.00957C4.77891 4.00957 5.31758 4.54824 5.31758 5.2127C5.31758 5.87441 4.77891 6.41582 4.11445 6.41582ZM12.9301 14.0091H10.8547V10.7607C10.8547 9.98691 10.841 8.98887 9.77461 8.98887C8.69453 8.98887 8.53047 9.83379 8.53047 10.706V14.0091H6.45781V7.32637H8.44844V8.23965H8.47578C8.75195 7.71465 9.43008 7.15957 10.4391 7.15957C12.5418 7.15957 12.9301 8.54316 12.9301 10.3424V14.0091Z" fill="#9098A0"/>
</g>
</g>
</svg>
