<svg width="151" height="41" viewBox="0 0 151 41" fill="none" xmlns="http://www.w3.org/2000/svg">
<g id="Frame">
<g id="Clip path group">
<mask id="mask0_0_123" style="mask-type:luminance" maskUnits="userSpaceOnUse" x="0" y="3" width="151" height="35">
<g id="clip0_88_194708">
<path id="Vector" d="M150.002 3.9646H0.00195312V37.9646H150.002V3.9646Z" fill="white"/>
</g>
</mask>
<g mask="url(#mask0_0_123)">
<g id="Group">
<path id="Vector_2" d="M26.1463 21.5056H16.6449C16.5314 21.5056 16.4395 21.5979 16.4395 21.712V24.3946C16.4395 24.5085 16.5314 24.601 16.6449 24.601H25.295C25.7383 23.6431 26.0322 22.6011 26.1463 21.5056Z" fill="#383E47"/>
<path id="Vector_3" d="M24.0071 26.6636H16.6449C16.5314 26.6636 16.4395 26.7559 16.4395 26.8698V29.7589C16.4395 30.0438 16.6698 30.2761 16.953 30.2614C19.7967 30.1133 22.3183 28.743 24.0071 26.6636Z" fill="#383E47"/>
<path id="Vector_4" d="M26.1463 19.4409H16.6449C16.5314 19.4409 16.4395 19.3485 16.4395 19.2345V16.5519C16.4395 16.438 16.5314 16.3455 16.6449 16.3455H25.295C25.7383 17.3034 26.0322 18.3454 26.1463 19.4409Z" fill="#383E47"/>
<path id="Vector_5" d="M24.0071 14.2819C22.3183 12.2024 19.7967 10.8321 16.953 10.684C16.6698 10.6693 16.4395 10.9016 16.4395 11.1866V14.0755C16.4395 14.1895 16.5314 14.2819 16.6449 14.2819H24.0071Z" fill="#383E47"/>
<path id="Vector_6" fill-rule="evenodd" clip-rule="evenodd" d="M16.4403 33.8863C23.8167 33.8863 29.7965 27.881 29.7965 20.4731C29.7965 13.0652 23.8167 7.05995 16.4403 7.05995C9.06391 7.05995 3.08414 13.0652 3.08414 20.4731C3.08414 27.881 9.06391 33.8863 16.4403 33.8863ZM16.4403 36.9816C25.519 36.9816 32.8787 29.5905 32.8787 20.4731C32.8787 11.3557 25.519 3.9646 16.4403 3.9646C7.36166 3.9646 0.00195312 11.3557 0.00195312 20.4731C0.00195312 29.5905 7.36166 36.9816 16.4403 36.9816Z" fill="#383E47"/>
<path id="Vector_7" d="M52.0692 30.4483C50.7109 30.4483 49.4535 30.1995 48.2971 29.7018C47.159 29.204 46.1586 28.5127 45.2958 27.6279C44.4515 26.7246 43.7907 25.6738 43.3134 24.4756C42.8545 23.2589 42.625 21.9316 42.625 20.4937C42.625 19.0559 42.8545 17.7378 43.3134 16.5395C43.7907 15.3229 44.4515 14.2721 45.2958 13.3872C46.1586 12.4839 47.159 11.7834 48.2971 11.2857C49.4535 10.7879 50.7109 10.5391 52.0692 10.5391C53.4277 10.5391 54.6759 10.7879 55.8139 11.2857C56.9703 11.7834 57.9708 12.4839 58.8151 13.3872C59.6779 14.2905 60.3388 15.3505 60.7976 16.5672C61.2749 17.7654 61.5135 19.0742 61.5135 20.4937C61.5135 21.9132 61.2749 23.2313 60.7976 24.4479C60.3388 25.6462 59.6779 26.6969 58.8151 27.6002C57.9708 28.5035 56.9703 29.204 55.8139 29.7018C54.6759 30.1995 53.4277 30.4483 52.0692 30.4483ZM52.0692 27.5449C53.0054 27.5449 53.859 27.3698 54.6299 27.0195C55.4193 26.6693 56.0985 26.1807 56.6675 25.554C57.2365 24.9088 57.6771 24.1621 57.9891 23.3142C58.3195 22.4477 58.4847 21.5076 58.4847 20.4937C58.4847 19.4798 58.3195 18.5488 57.9891 17.7009C57.6771 16.8344 57.2365 16.0879 56.6675 15.4611C56.0985 14.8159 55.4193 14.3181 54.6299 13.9679C53.859 13.6176 53.0054 13.4425 52.0692 13.4425C51.1331 13.4425 50.2704 13.6176 49.481 13.9679C48.7101 14.3181 48.031 14.8067 47.4435 15.4334C46.8745 16.0603 46.434 16.8068 46.1218 17.6732C45.8098 18.5212 45.6538 19.4614 45.6538 20.4937C45.6538 21.5076 45.8098 22.4477 46.1218 23.3142C46.434 24.1806 46.8745 24.9272 47.4435 25.554C48.031 26.1807 48.7101 26.6693 49.481 27.0195C50.2704 27.3698 51.1331 27.5449 52.0692 27.5449Z" fill="#383E47"/>
<path id="Vector_8" d="M63.9062 30.1726V15.6554H66.7424V18.6419L66.2467 18.9737C66.4303 18.3285 66.7883 17.7386 67.3206 17.204C67.8529 16.6509 68.4861 16.2085 69.2204 15.8767C69.9546 15.5264 70.7073 15.3513 71.4783 15.3513C72.5796 15.3513 73.4973 15.5725 74.2316 16.0149C74.9659 16.439 75.5166 17.0933 75.8836 17.9783C76.2507 18.8631 76.4344 19.9784 76.4344 21.3241V30.1726H73.5983V21.5177C73.5983 20.6881 73.4882 20.006 73.2679 19.4715C73.0476 18.9184 72.7081 18.522 72.2491 18.2824C71.7902 18.0243 71.2212 17.9138 70.542 17.9505C69.9913 17.9505 69.4867 18.0427 69.0277 18.2271C68.5688 18.3931 68.165 18.6327 67.8162 18.946C67.4858 19.2594 67.2196 19.6281 67.0177 20.0521C66.8341 20.4577 66.7424 20.9001 66.7424 21.3794V30.1726H65.338C65.0994 30.1726 64.8609 30.1726 64.6222 30.1726C64.3836 30.1726 64.145 30.1726 63.9062 30.1726Z" fill="#383E47"/>
<path id="Vector_9" d="M86.0977 30.1724V10.8162H93.642C95.0188 10.8162 96.2578 11.0466 97.3592 11.5075C98.4789 11.9683 99.4334 12.632 100.223 13.4984C101.012 14.3648 101.618 15.3879 102.04 16.5677C102.462 17.7475 102.673 19.0564 102.673 20.4943C102.673 21.9322 102.462 23.2503 102.04 24.4485C101.618 25.6283 101.012 26.6514 100.223 27.5178C99.4518 28.3658 98.5065 29.0203 97.3867 29.4811C96.2669 29.942 95.0188 30.1724 93.642 30.1724H86.0977ZM89.0714 27.6007L88.9888 27.2966H93.5044C94.4772 27.2966 95.34 27.1399 96.0926 26.8266C96.8635 26.5132 97.506 26.0707 98.02 25.4992C98.5523 24.9094 98.9561 24.1904 99.2315 23.3424C99.5068 22.4945 99.6445 21.545 99.6445 20.4943C99.6445 19.4435 99.5068 18.5034 99.2315 17.6738C98.9561 16.8258 98.5523 16.1069 98.02 15.5169C97.4877 14.9271 96.8452 14.4754 96.0926 14.162C95.34 13.8486 94.4772 13.692 93.5044 13.692H88.9062L89.0714 13.4431V27.6007Z" fill="#383E47"/>
<path id="Vector_10" d="M112.424 30.4495C110.937 30.4495 109.615 30.1361 108.459 29.5094C107.321 28.8642 106.421 27.9885 105.761 26.8825C105.118 25.7764 104.797 24.5044 104.797 23.0665C104.797 21.9235 104.981 20.882 105.348 19.9419C105.714 19.0017 106.22 18.1906 106.862 17.5085C107.523 16.808 108.303 16.2734 109.202 15.9047C110.12 15.5175 111.111 15.324 112.176 15.324C113.113 15.324 113.984 15.5084 114.791 15.877C115.6 16.2273 116.297 16.7158 116.884 17.3426C117.49 17.9693 117.949 18.716 118.261 19.5824C118.592 20.4303 118.748 21.3613 118.729 22.3752L118.702 23.5919H106.89L106.256 21.3244H116.251L115.838 21.7946V21.1308C115.783 20.5225 115.581 19.9787 115.232 19.4994C114.884 19.0202 114.443 18.6422 113.911 18.3657C113.379 18.0892 112.8 17.9509 112.176 17.9509C111.185 17.9509 110.35 18.1445 109.671 18.5316C108.992 18.9003 108.477 19.4533 108.129 20.1907C107.779 20.9096 107.606 21.8037 107.606 22.873C107.606 23.8868 107.816 24.7717 108.239 25.5275C108.661 26.2649 109.258 26.8363 110.028 27.2419C110.799 27.6475 111.69 27.8503 112.7 27.8503C113.415 27.8503 114.076 27.7304 114.681 27.4908C115.306 27.2511 115.976 26.8179 116.692 26.1912L118.123 28.2097C117.682 28.6521 117.141 29.0393 116.499 29.3711C115.875 29.703 115.204 29.9702 114.489 30.173C113.792 30.3574 113.103 30.4495 112.424 30.4495Z" fill="#383E47"/>
<path id="Vector_11" d="M127.845 30.4491C126.505 30.4491 125.303 30.1174 124.238 29.4537C123.191 28.79 122.356 27.8868 121.732 26.7439C121.126 25.6009 120.824 24.3197 120.824 22.9002C120.824 21.4808 121.126 20.1996 121.732 19.0567C122.356 17.9138 123.191 17.0104 124.238 16.3468C125.303 15.6831 126.505 15.3513 127.845 15.3513C129.13 15.3513 130.296 15.6187 131.342 16.1532C132.406 16.6694 133.215 17.3791 133.765 18.2824L132.195 20.218C131.902 19.7941 131.526 19.4069 131.066 19.0567C130.608 18.7064 130.121 18.4298 129.607 18.2271C129.094 18.0243 128.598 17.9229 128.121 17.9229C127.239 17.9229 126.45 18.1441 125.753 18.5865C125.074 19.0105 124.532 19.6005 124.128 20.3563C123.725 21.1121 123.522 21.9601 123.522 22.9002C123.522 23.8404 123.733 24.6884 124.155 25.4442C124.577 26.1816 125.137 26.7715 125.835 27.2139C126.532 27.6563 127.304 27.8776 128.148 27.8776C128.644 27.8776 129.12 27.7946 129.58 27.6287C130.057 27.4628 130.516 27.2139 130.956 26.8821C131.397 26.5503 131.81 26.1447 132.195 25.6654L133.765 27.6011C133.178 28.4306 132.333 29.1126 131.232 29.6473C130.149 30.1819 129.02 30.4491 127.845 30.4491Z" fill="#383E47"/>
<path id="Vector_12" d="M138.412 25.6378L138.275 22.5408L145.186 15.6555H149.013L138.412 25.6378ZM135.824 30.1726V10.7751H138.661V30.1726H135.824ZM145.571 30.1726L140.12 23.7851L142.129 21.9324L149.206 30.1726H145.571Z" fill="#383E47"/>
</g>
</g>
</g>
</g>
</svg>
