<svg width="140" height="41" viewBox="0 0 140 41" fill="none" xmlns="http://www.w3.org/2000/svg">
<g id="Frame">
<g id="Clip path group">
<mask id="mask0_0_35" style="mask-type:luminance" maskUnits="userSpaceOnUse" x="0" y="4" width="139" height="36">
<g id="clip0_88_194707">
<path id="Vector" d="M138.857 4.9646H0.926758V39.1523H138.857V4.9646Z" fill="white"/>
</g>
</mask>
<g mask="url(#mask0_0_35)">
<g id="Group">
<path id="Vector_2" d="M99.2477 16.413C97.2201 16.413 95.773 17.1056 95.0627 18.4171L94.681 19.1274V16.7549H91.3816V31.1756H94.852V22.5962C94.852 20.5465 95.966 19.3705 97.9068 19.3705C99.7576 19.3705 100.819 20.5155 100.819 22.5108V31.1756H104.291V21.8919C104.291 18.4584 102.406 16.413 99.2477 16.413ZM82.4177 16.413C78.3225 16.413 75.7864 18.9682 75.7864 23.0811V25.1058C75.7864 29.061 78.352 31.5175 82.4825 31.5175C85.2455 31.5175 87.1818 30.5051 88.4005 28.4229L86.249 27.1851C85.3487 28.3861 83.9104 29.1302 82.484 29.1302C80.3929 29.1302 79.1448 27.8393 79.1448 25.6761V25.1029H88.8308V22.7112C88.8308 18.8798 86.3154 16.413 82.4206 16.413H82.4177ZM85.6729 22.7716H79.133V22.4253C79.133 20.0513 80.2986 18.7413 82.4147 18.7413C84.4527 18.7413 85.6699 20.0322 85.6699 22.1954L85.6729 22.7716ZM138.755 14.3809V11.6223H126.751V14.3809H130.96V28.4111H126.751V31.1697H138.755V28.4111H134.545V14.3809H138.755ZM47.7363 11.2244C42.3753 11.2244 39.042 14.5651 39.042 19.9452V22.8541C39.042 28.2328 42.3739 31.5749 47.7363 31.5749C53.0988 31.5749 56.4306 28.2328 56.4306 22.8541V19.9452C56.4291 14.5592 53.0929 11.2244 47.7363 11.2244ZM52.8438 23.0531C52.8438 26.6251 50.9827 28.6734 47.7363 28.6734C44.49 28.6734 42.6303 26.6251 42.6303 23.0531V19.7448C42.6303 16.1728 44.4929 14.1245 47.7378 14.1245C50.9827 14.1245 52.8453 16.1728 52.8453 19.7448L52.8438 23.0531ZM67.3309 16.413C65.5095 16.413 63.9327 17.1675 63.1105 18.4304L62.7376 19.0051V16.7549H59.4368V36.1372H62.9086V29.117L63.2799 29.6681C64.0609 30.8263 65.5861 31.5175 67.3604 31.5175C70.3532 31.5175 73.3727 29.562 73.3727 25.1913V22.7392C73.3727 19.5901 71.5115 16.413 67.3309 16.413ZM69.9009 25.0218C69.9009 27.3457 68.5451 28.7898 66.3642 28.7898C64.3306 28.7898 62.9115 27.2632 62.9115 25.0793V22.9101C62.9115 20.6997 64.3424 19.1436 66.3937 19.1436C68.5584 19.1436 69.9038 20.5862 69.9038 22.9101L69.9009 25.0218ZM113.884 11.6238L106.88 31.1756H110.406L111.747 26.9847H119.799L119.812 27.0259L121.138 31.1756H124.663L117.648 11.6223L113.884 11.6238ZM112.608 24.2275L115.767 14.3426L118.894 24.2275H112.608Z" fill="#383E47"/>
<path id="Vector_3" d="M32.2529 18.9809C32.6329 17.8402 32.7647 16.6316 32.6397 15.4358C32.5147 14.2401 32.1356 13.0849 31.5279 12.0475C30.6257 10.4797 29.2494 9.23856 27.597 8.50267C25.9446 7.76678 24.1014 7.5741 22.3325 7.95236C21.5348 7.05263 20.554 6.33371 19.4558 5.84373C18.3577 5.35375 17.1675 5.10401 15.9651 5.11124C14.1559 5.10712 12.3922 5.67778 10.9284 6.7409C9.4646 7.80401 8.37629 9.30463 7.8205 11.0263C6.64268 11.2679 5.53003 11.7583 4.55696 12.4645C3.5839 13.1707 2.77284 14.0766 2.17805 15.1215C1.27114 16.6867 0.88425 18.4993 1.07306 20.2984C1.26186 22.0975 2.01664 23.7903 3.22873 25.1332C2.85023 26.2728 2.71912 27.4801 2.84414 28.6744C2.96916 29.8687 3.34744 31.0226 3.95375 32.0591C4.85504 33.63 6.23199 34.8739 7.88599 35.6115C9.53999 36.3491 11.3855 36.5423 13.1564 36.1631C13.9535 37.0618 14.9331 37.78 16.0299 38.27C17.1266 38.7599 18.3153 39.0102 19.5165 39.0043C21.3256 39.0084 23.0893 38.4377 24.5532 37.3746C26.017 36.3115 27.1053 34.8109 27.6611 33.0892C28.8387 32.8475 29.9511 32.3571 30.9239 31.6509C31.8967 30.9447 32.7075 30.0388 33.3021 28.994C34.2113 27.4293 34.5997 25.6161 34.4111 23.8163C34.2225 22.0164 33.4667 20.3231 32.2529 18.9809ZM19.5165 36.7938C18.0307 36.7951 16.5919 36.2735 15.4523 35.3202C15.5024 35.2922 15.5996 35.2436 15.6556 35.2068L22.4047 31.3105C22.5741 31.2144 22.7147 31.0748 22.8121 30.9061C22.9095 30.7375 22.9601 30.546 22.9588 30.3512V20.8347L25.8103 22.4807C25.8257 22.488 25.8389 22.4992 25.8487 22.5131C25.8586 22.527 25.8646 22.5433 25.8663 22.5603V30.4367C25.8663 32.1214 25.1975 33.7373 24.0069 34.9293C22.8163 36.1213 21.2012 36.7919 19.5165 36.7938ZM5.87239 30.9672C5.12838 29.6814 4.85977 28.1751 5.11348 26.7114C5.16358 26.7424 5.252 26.7954 5.31389 26.8308L12.0644 30.7285C12.2325 30.8269 12.4238 30.8788 12.6185 30.8788C12.8133 30.8788 13.0045 30.8269 13.1726 30.7285L21.4086 25.9658V29.2578C21.4101 29.2747 21.4073 29.2918 21.4003 29.3072C21.3933 29.3227 21.3825 29.3362 21.3688 29.3462L14.546 33.2837C13.0872 34.1237 11.3547 34.3507 9.72874 33.9151C8.10271 33.4794 6.71586 32.4166 5.87239 30.9598V30.9672ZM4.10406 16.2311C4.84458 14.9434 6.01472 13.9574 7.40936 13.446V21.4683C7.40837 21.663 7.45916 21.8544 7.55652 22.023C7.65388 22.1916 7.79432 22.3312 7.96344 22.4276L16.2009 27.1844L13.3391 28.8364C13.3252 28.8458 13.3091 28.8515 13.2923 28.853C13.2756 28.8546 13.2588 28.8519 13.2433 28.8452L6.42204 24.9062C4.96453 24.063 3.90119 22.6759 3.46548 21.0494C3.02978 19.4229 3.25732 17.69 4.09816 16.2311H4.10406ZM27.5344 21.6835L19.2969 16.9267L22.1454 15.2792C22.1594 15.2699 22.1755 15.2642 22.1922 15.2627C22.209 15.2612 22.2257 15.2638 22.2412 15.2703L29.0625 19.2093C30.1073 19.813 30.9585 20.7018 31.5165 21.7717C32.0744 22.8416 32.3161 24.0483 32.2131 25.2505C32.1101 26.4528 31.6668 27.6008 30.935 28.5603C30.2033 29.5197 29.2133 30.2508 28.0811 30.6681V22.6472C28.0833 22.4521 28.0334 22.2598 27.9365 22.0904C27.8396 21.921 27.6993 21.7805 27.53 21.6835H27.5344ZM30.374 17.41C30.3239 17.3791 30.2355 17.326 30.1736 17.2906L23.423 13.3929C23.2549 13.2945 23.0637 13.2426 22.8689 13.2426C22.6742 13.2426 22.4829 13.2945 22.3149 13.3929L14.0774 18.1483V14.8577C14.0768 14.8408 14.0802 14.8239 14.0874 14.8086C14.0946 14.7932 14.1053 14.7797 14.1186 14.7693L20.94 10.8318C21.9852 10.2293 23.1803 9.93696 24.3856 9.98896C25.5909 10.041 26.7564 10.4352 27.7458 11.1255C28.7352 11.8157 29.5076 12.7735 29.9725 13.8867C30.4374 14.9999 30.5757 16.2226 30.3711 17.4115L30.374 17.41ZM12.5227 23.2809L9.66988 21.6348C9.65522 21.6267 9.64266 21.6153 9.63319 21.6015C9.62373 21.5877 9.61762 21.5719 9.61535 21.5553V13.6788C9.61444 12.4716 9.95766 11.2892 10.6048 10.2701C11.2519 9.25097 12.1761 8.43748 13.2691 7.92493C14.3621 7.41238 15.5786 7.22203 16.7759 7.37617C17.9732 7.53032 19.1018 8.02258 20.0293 8.79526C19.9792 8.82326 19.8893 8.87189 19.8259 8.90873L13.0768 12.805C12.9077 12.9014 12.7673 13.041 12.6699 13.2096C12.5725 13.3782 12.5217 13.5696 12.5227 13.7643V23.2809ZM14.0715 19.9402L17.7408 17.8211L21.4086 19.9402V24.1753L17.7393 26.2944L14.07 24.1753L14.0715 19.9402Z" fill="#383E47"/>
</g>
</g>
</g>
</g>
</svg>
