<svg width="126" height="41" viewBox="0 0 126 41" fill="none" xmlns="http://www.w3.org/2000/svg">
<g id="Frame">
<g id="Clip path group">
<mask id="mask0_0_43" style="mask-type:luminance" maskUnits="userSpaceOnUse" x="1" y="2" width="125" height="34">
<g id="clip0_88_194715">
<path id="Vector" d="M125.245 2.9646H1.16504V35.2953H125.245V2.9646Z" fill="white"/>
</g>
</mask>
<g mask="url(#mask0_0_43)">
<g id="Group">
<path id="Vector_2" d="M32.5028 15.2176C32.5014 18.4347 31.2923 21.5238 29.1336 23.8253C26.975 26.1268 24.0379 27.4584 20.9494 27.5356V14.4587H8.90723C9.11212 11.2759 10.4947 8.29994 12.7641 6.15725C15.0334 4.01454 18.0125 2.87213 21.0742 2.97046C24.1361 3.06879 27.0418 4.40018 29.18 6.68443C31.3183 8.96867 32.4866 12.0277 32.5028 15.2176Z" fill="#99A2AF"/>
<path id="Vector_3" d="M20.9473 14.4587V27.5357H20.7429C19.1899 27.5357 17.6522 27.217 16.2175 26.5979C14.7829 25.9787 13.4795 25.0712 12.3818 23.9273C11.2841 22.7833 10.4136 21.4253 9.82005 19.9308C9.22659 18.4364 8.92171 16.8348 8.92285 15.2176C8.92285 14.9678 8.92285 14.7086 8.92285 14.4587H20.9473Z" fill="#FAFAFB"/>
<path id="Vector_4" d="M20.948 27.5357V34.9951H1.16504V14.4587H8.90582C8.90582 14.7086 8.90582 14.9678 8.90582 15.2176C8.90463 16.8348 9.20951 18.4364 9.80297 19.9308C10.3965 21.4253 11.267 22.7833 12.3647 23.9273C13.4624 25.0712 14.7658 25.9787 16.2005 26.5979C17.6351 27.217 19.1729 27.5357 20.7258 27.5357H20.948Z" fill="#383E47"/>
<path id="Vector_5" d="M46.6592 11.1755H56.6068C61.7086 11.1755 64.8969 13.4865 64.8969 18.3208C64.8969 23.1551 61.7086 25.7051 56.4031 25.7051H51.0019V33.3683H46.6592V11.1755ZM56.1736 21.8004C58.9731 21.8004 60.5226 20.9172 60.5226 18.4802C60.5226 15.9634 58.9411 15.0802 56.3199 15.0802H51.0337V21.7672L56.1736 21.8004Z" fill="#383E47"/>
<path id="Vector_6" d="M64.626 29.3843C64.626 27.0468 66.1181 25.6457 68.8028 24.8886L75.6707 22.9496L75.849 22.8965C75.849 22.8965 75.849 22.757 75.849 22.6973C75.849 20.8113 74.7654 19.9613 72.8396 19.9613C70.9138 19.9613 69.3638 21.0238 68.4647 23.6402L64.9321 22.2722C66.3285 18.3543 69.2811 16.8337 73.018 16.8337C77.6859 16.8337 80.1665 19.2906 80.1665 22.6043V28.2886C80.1665 29.4773 80.5424 30.1148 81.5055 30.1148C82.0153 30.1028 82.5158 29.9663 82.9661 29.7163V33.0366C81.9724 33.449 80.9167 33.6739 79.8475 33.7006C77.6539 33.7006 75.9638 32.4589 75.9638 30.055V29.7229H75.849C75.3165 30.9512 74.448 31.9891 73.353 32.707C72.2574 33.425 70.983 33.7913 69.6895 33.7604C66.3223 33.7073 64.626 31.4827 64.626 29.3843ZM70.9644 30.2941C72.1153 30.2485 73.2263 29.8436 74.1533 29.132C74.692 28.7268 75.1304 28.1939 75.4318 27.5772C75.7338 26.9606 75.8899 26.2779 75.8873 25.5859C75.8873 25.5461 75.8873 25.3136 75.8873 25.3136L75.6324 25.4L70.799 27.1331C69.6895 27.5316 68.9306 27.837 68.9306 28.7136C68.9176 29.4773 69.5297 30.2941 70.9644 30.2941Z" fill="#383E47"/>
<path id="Vector_7" d="M84.6928 11.1755H89.0609V33.3683H84.6865L84.6928 11.1755Z" fill="#383E47"/>
<path id="Vector_8" d="M91.5303 11.1755H95.9114V33.3683H91.5303V11.1755Z" fill="#383E47"/>
<path id="Vector_9" d="M105.64 33.7077C100.507 33.7077 97.3506 30.3875 97.3506 25.4735C97.3506 20.3403 100.654 16.781 105.761 16.781C110.723 16.781 114.019 19.9751 114.019 26.0246H101.667C101.871 28.5281 103.038 30.3344 105.902 30.3344C108.032 30.3344 109.836 29.3317 110.423 27.0871L113.981 28.2426C112.655 32.0875 109.403 33.7077 105.64 33.7077ZM109.524 23.3153C109.071 21.0974 107.713 20.0614 105.761 20.0614C104.832 19.9896 103.911 20.2844 103.181 20.8872C102.451 21.4901 101.965 22.3568 101.82 23.3153H109.524Z" fill="#383E47"/>
<path id="Vector_10" d="M122.468 30.3265C120.689 30.3265 120.102 29.7488 120.102 27.7102V20.4255H124.77V17.1716H113.292V20.4255H115.772V29.4832C115.772 32.1394 117.048 33.6734 120.797 33.6734C122.19 33.6892 123.58 33.5467 124.942 33.2484V30.0609C124.126 30.2211 123.298 30.31 122.468 30.3265Z" fill="#383E47"/>
<path id="Vector_11" d="M115.722 11.1755C115.9 12.3241 116.421 13.3851 117.211 14.2077C118.001 15.0303 119.019 15.5726 120.123 15.7575V11.1755H115.722Z" fill="#383E47"/>
</g>
</g>
</g>
</g>
</svg>
