<svg width="158" height="41" viewBox="0 0 158 41" fill="none" xmlns="http://www.w3.org/2000/svg">
<g id="Frame">
<g id="Clip path group">
<mask id="mask0_0_80" style="mask-type:luminance" maskUnits="userSpaceOnUse" x="1" y="0" width="157" height="41">
<g id="clip0_257_163113">
<path id="Vector" d="M157.645 0.9646H1.64532V40.9646H157.645V0.9646Z" fill="white"/>
</g>
</mask>
<g mask="url(#mask0_0_80)">
<path id="Vector_2" d="M58.0373 26.1543C58.0373 29.6732 54.3628 30.4219 51.5161 30.4219C49.0365 30.4219 46.4621 29.3085 45.5444 28.8697C45.3292 28.7676 45.1943 28.5513 45.1943 28.313V24.5535C45.1943 24.252 45.5359 24.0758 45.7802 24.252C48.6354 26.3281 52.9699 26.8119 52.9699 25.6426C52.9699 24.3845 45.0533 24.6957 45.0533 19.1603C45.0533 16.1337 47.7396 14.5511 51.3326 14.5511C56.2773 14.5511 57.5572 17.8706 57.6678 20.4597C57.6763 20.6687 57.5074 20.8425 57.2971 20.8425H52.7462C52.542 20.8425 52.3755 20.6772 52.3755 20.4718V20.3345C52.3755 19.4046 52.0607 18.9038 51.3435 18.9038C50.6847 18.9038 50.3116 19.4593 50.3116 19.9358C50.3116 22.7825 58.0385 21.1719 58.0385 26.1531L58.0373 26.1543ZM36.4536 19.937C36.4536 19.4605 36.828 18.905 37.4856 18.905C38.2027 18.905 38.5176 19.4058 38.5176 20.3357V20.473C38.5176 20.6772 38.6829 20.8438 38.8883 20.8438H43.4391C43.6482 20.8438 43.8184 20.6699 43.8099 20.4609C43.6993 17.8731 42.4193 14.5523 37.4747 14.5523C33.8816 14.5523 31.1954 16.1349 31.1954 19.1615C31.1954 24.6969 39.1119 24.3857 39.1119 25.6438C39.1119 26.8131 34.7787 26.3293 31.9222 24.2532C31.6791 24.0758 31.3364 24.2532 31.3364 24.5547V28.3142C31.3364 28.5525 31.4725 28.7688 31.6864 28.8709C32.6041 29.3097 35.1786 30.4231 37.6582 30.4231C40.5061 30.4231 44.1794 29.6756 44.1794 26.1555C44.1794 21.1744 36.4524 22.7849 36.4524 19.9382L36.4536 19.937ZM62.3572 7.59358C60.145 7.59358 58.701 8.7398 58.701 10.6372C58.701 12.5346 60.1462 13.6808 62.3572 13.6808C64.5682 13.6808 66.0134 12.5346 66.0134 10.6372C66.0134 8.7398 64.5682 7.59358 62.3572 7.59358ZM15.5434 22.4823C15.5434 27.6688 14.0191 30.4219 10.9293 30.4219C9.46342 30.4219 8.14462 29.8032 7.33144 27.8426L7.72282 33.9408C7.73622 34.1547 7.56725 34.3346 7.35332 34.3346H2.01605C1.81184 34.3346 1.64532 34.1693 1.64532 33.9639V15.3667C1.64532 15.1625 1.81063 14.996 2.01605 14.996H5.59692C5.78046 14.996 5.93604 15.1297 5.96278 15.3108L6.325 17.8475C7.13453 15.7399 8.60772 14.5511 10.7275 14.5511C13.9389 14.5511 15.5434 17.2957 15.5434 22.4823ZM10.0566 22.4871C10.0566 20.4986 9.72722 18.905 8.63202 18.905C7.53686 18.905 7.20746 20.4986 7.20746 22.4871C7.20746 24.4757 7.53686 26.0887 8.63202 26.0887C9.72722 26.0887 10.0566 24.4757 10.0566 22.4871ZM29.868 20.9434V29.5929C29.868 29.7971 29.7027 29.9637 29.4973 29.9637H25.9164C25.7329 29.9637 25.5773 29.83 25.5506 29.6489L25.254 27.698C24.3169 29.362 22.5835 30.4231 20.7688 30.4231C18.0765 30.4231 16.523 29.08 16.523 26.1251C16.523 21.6399 20.8369 20.8887 24.5952 20.9604C24.2585 19.9564 23.5717 19.4423 22.1715 19.4423C20.2668 19.4423 18.3864 20.5934 17.4651 21.2534C17.2195 21.4284 16.8804 21.2534 16.8804 20.9519V17.4221C16.8804 17.2289 16.9716 17.0465 17.1259 16.9298C17.9148 16.3306 20.5293 14.5535 23.7966 14.5535C27.7275 14.5535 29.8693 17.3066 29.8693 20.9446L29.868 20.9434ZM24.8091 24.2447C24.8128 22.8664 24.7289 22.0082 24.7289 22.0082C24.0227 21.9948 22.6638 22.7472 22.6589 24.4222C22.6553 25.4627 23.0053 26.2515 23.7723 26.2661C24.5271 26.2807 24.8067 25.3922 24.8091 24.2447ZM65.0362 14.9972H59.6746C59.4704 14.9972 59.3039 15.1625 59.3039 15.3679L59.3136 29.5929C59.3136 29.7971 59.4789 29.9637 59.6843 29.9637H65.0459C65.2501 29.9637 65.4166 29.7984 65.4166 29.5929L65.4069 15.3679C65.4069 15.1637 65.2416 14.9972 65.0362 14.9972ZM80.0622 22.4823C80.0622 28.0651 77.4999 30.4219 73.3684 30.4219C69.237 30.4219 66.6747 28.0651 66.6747 22.4823C66.6747 16.8995 69.237 14.5426 73.3684 14.5426C77.4999 14.5426 80.0622 16.8995 80.0622 22.4823ZM74.7772 22.4823C74.7772 20.4937 74.4515 18.905 73.3684 18.905C72.2854 18.905 71.9597 20.4937 71.9597 22.4823C71.9597 24.4708 72.2854 26.0838 73.3684 26.0838C74.4515 26.0838 74.7772 24.4708 74.7772 22.4823ZM131.243 22.4823C131.243 28.0651 128.681 30.4219 124.549 30.4219C120.418 30.4219 117.856 28.0651 117.856 22.4823C117.856 16.8995 120.418 14.5426 124.549 14.5426C128.681 14.5426 131.243 16.8995 131.243 22.4823ZM125.958 22.4823C125.958 20.4937 125.632 18.905 124.548 18.905C123.464 18.905 123.138 20.4937 123.138 22.4823C123.138 24.4708 123.464 26.0838 124.548 26.0838C125.632 26.0838 125.958 24.4708 125.958 22.4823ZM157.274 18.905C157.478 18.905 157.645 18.7397 157.645 18.5343V15.3655C157.645 15.1613 157.48 14.9948 157.274 14.9948H153.245V11.2437C153.245 11.0395 153.08 10.873 152.874 10.873H149.611C149.426 10.873 149.268 11.0103 149.245 11.1939C148.936 13.5641 147.753 15.1625 146.182 15.5588C146.015 15.6001 145.897 15.7472 145.897 15.9185V18.5331C145.897 18.7373 146.062 18.9038 146.268 18.9038H147.127V26.0874C147.127 28.1125 148.549 30.4207 152.292 30.4207C155.244 30.4207 156.87 29.3158 157.424 28.8503C157.564 28.7324 157.644 28.5598 157.644 28.3774V25.267C157.644 24.9716 157.316 24.7966 157.068 24.9582C156.522 25.318 155.675 25.7787 154.926 25.7787C153.972 25.7787 153.244 25.4578 153.244 23.8546V18.9026H157.273L157.274 18.905ZM145.542 22.4823C145.542 28.0651 142.98 30.4219 138.848 30.4219C134.717 30.4219 132.155 28.0651 132.155 22.4823C132.155 16.8995 134.717 14.5426 138.848 14.5426C142.98 14.5426 145.542 16.8995 145.542 22.4823ZM140.257 22.4823C140.257 20.4937 139.931 18.905 138.847 18.905C137.763 18.905 137.437 20.4937 137.437 22.4823C137.437 24.4708 137.763 26.0838 138.847 26.0838C139.931 26.0838 140.257 24.4708 140.257 22.4823ZM91.0443 14.5511C88.764 14.5511 86.9565 15.5575 86.0522 17.8646L85.6669 15.312C85.6389 15.1309 85.4834 14.9972 85.301 14.9972H81.7202C81.516 14.9972 81.3494 15.1625 81.3494 15.3679V29.5929C81.3494 29.7971 81.5147 29.9637 81.7202 29.9637H87.0854C87.2896 29.9637 87.4561 29.7984 87.4561 29.5929L87.4622 20.1534C87.4622 19.2745 88.0554 18.905 88.5707 18.905C89.0861 18.905 89.6683 19.1834 89.6683 20.1023V29.5917C89.6683 29.7959 89.8336 29.9625 90.0391 29.9625H95.4031C95.6073 29.9625 95.7738 29.7972 95.7738 29.5917V19.3426C95.7738 16.3792 94.2143 14.5511 91.0455 14.5511H91.0443ZM118.691 15.6754L117.059 19.0813C116.96 19.2879 116.695 19.3596 116.509 19.2247C116.23 19.0217 115.985 18.9062 115.465 18.905C114.695 18.9026 113.434 19.3426 113.434 21.0224V29.5929C113.434 29.7971 113.268 29.9637 113.063 29.9637H107.699C107.495 29.9637 107.328 29.7984 107.328 29.5929V15.3667C107.328 15.1625 107.493 14.996 107.699 14.996H111.28C111.463 14.996 111.619 15.1297 111.646 15.3108L112.044 17.8585C112.936 15.1406 114.503 14.5511 116.21 14.5511C117.436 14.5511 118.202 14.9401 118.563 15.205C118.712 15.3144 118.772 15.5077 118.691 15.6754ZM112.329 21.2035C112.329 21.2035 112.32 21.195 112.316 21.1914V21.2035H112.329ZM105.6 13.2785C105.845 13.4243 106.151 13.2444 106.151 12.9588V9.22843C106.151 8.98776 106.006 8.76897 105.787 8.66808C100.789 6.35012 96.5858 8.03481 96.5858 11.313C96.5858 13.9336 99.4543 14.996 99.4543 14.996H97.7833C97.58 14.9972 97.4159 15.1625 97.4159 15.3667V29.5917C97.4159 29.7959 97.5813 29.9625 97.7863 29.9625H103.148C103.352 29.9625 103.519 29.7972 103.519 29.5917V18.9038H105.783C105.987 18.9038 106.154 18.7385 106.154 18.5331V15.3667C106.154 15.1649 105.989 14.9972 105.787 14.9972C104.469 14.9935 102.353 14.5159 102.353 13.2943C102.353 12.1809 104.115 12.3972 105.602 13.2785H105.6Z" fill="#383E47"/>
</g>
</g>
</g>
</svg>
