<svg width="82" height="41" viewBox="0 0 82 41" fill="none" xmlns="http://www.w3.org/2000/svg">
<g id="Frame">
<g id="Clip path group">
<mask id="mask0_0_72" style="mask-type:luminance" maskUnits="userSpaceOnUse" x="1" y="0" width="81" height="41">
<g id="clip0_88_194718">
<path id="Vector" d="M81.1748 0.9646H1.1748V40.9646H81.1748V0.9646Z" fill="white"/>
</g>
</mask>
<g mask="url(#mask0_0_72)">
<g id="Group">
<path id="Vector_2" d="M39.6895 30.249L39.6699 30.2905C38.5331 32.4854 36.7298 33.5524 34.1541 33.5524C30.818 33.5524 28.3961 31.1861 28.3961 27.9307C28.3961 24.7757 30.7449 22.5415 34.3777 22.2349L39.4888 21.7997L39.5564 21.7942V20.5265C39.5564 18.673 38.5287 17.6923 36.5836 17.6923C34.6439 17.6923 33.4275 18.6927 33.3915 20.3062H29.0146C29.1881 16.6144 32.1489 14.3245 36.7636 14.3245C41.2757 14.3245 43.8635 16.6101 43.8635 20.5985V29.7472H46.9803V33.1171H39.9917L39.9557 30.3243V30.249H39.6895ZM39.5564 25.8994V25.091L35.4065 25.4499C35.3105 25.4619 33.0718 25.7216 32.5471 26.7045C32.3104 27.1464 32.2678 27.7038 32.4304 28.2351C32.5624 28.6715 32.894 29.2868 33.7122 29.7188C34.1006 29.961 34.6144 30.1094 35.2374 30.1617L35.3039 30.1705C35.3366 30.1759 35.3716 30.1803 35.4076 30.1835L35.4556 30.1781C35.5526 30.1814 35.6487 30.1835 35.7501 30.1835C37.992 30.1835 39.5564 28.4217 39.5564 25.8994ZM12.141 8.50003C12.2075 8.50767 12.273 8.51749 12.3276 8.5284C14.2225 8.77822 15.9615 9.7088 17.2183 11.1444C19.9554 14.2733 19.8016 18.9785 16.8659 21.9229C15.3909 23.4001 13.3869 24.2314 11.2966 24.2314C11.2213 24.2314 11.1493 24.227 11.0762 24.2215C11.0348 24.2194 10.9933 24.2161 10.9519 24.215H5.76222V33.1204H1.1748V8.45312H11.3152L11.3337 8.45531C11.5955 8.45531 11.8584 8.46841 12.1214 8.49568L12.141 8.50003ZM13.5036 12.5005H5.76222V20.2549H13.5036V12.4972V12.5005Z" fill="#383E47"/>
<path id="Vector_3" d="M21.3467 33.1463H25.7563V8.37866H21.3467V33.1463ZM49.1767 12.8384H53.5557V8.45284H49.1767V12.8384ZM72.5141 33.1157V21.0717C72.5141 16.6567 70.4479 14.3243 66.5369 14.3243C64.0888 14.3243 62.3204 15.3334 61.1302 17.4073L60.9883 17.6527V14.7585H56.6115V33.1157H60.9905V22.4856C60.9905 19.6851 62.5855 17.8742 65.0521 17.8742C67.126 17.8742 68.1351 19.0251 68.1351 21.3968V33.1168L72.5141 33.1157ZM75.4968 33.1157H81.1741V27.4308H75.4968V33.1157ZM53.5448 33.1463H49.1352V14.8054H53.5448V33.1463Z" fill="#383E47"/>
</g>
</g>
</g>
</g>
</svg>
