<svg width="16" height="18" viewBox="0 0 16 18" fill="none" xmlns="http://www.w3.org/2000/svg">
<g id="Frame">
<g id="Group" opacity="0.9">
<path id="Vector" d="M5.71885 15.267C11.3778 15.267 14.4739 10.5775 14.4739 6.51197C14.4739 6.38014 14.471 6.24537 14.4651 6.11354C15.0674 5.67797 15.5872 5.13847 16 4.52037C15.4391 4.76993 14.8435 4.93292 14.2337 5.00377C14.8758 4.61888 15.3566 4.01423 15.5869 3.30191C14.9828 3.65991 14.3222 3.91244 13.6334 4.04869C13.1693 3.55554 12.5556 3.22901 11.8873 3.11959C11.219 3.01018 10.5332 3.12397 9.93609 3.44337C9.33893 3.76277 8.86363 4.27 8.58365 4.88663C8.30368 5.50326 8.23464 6.19494 8.38721 6.85475C7.16406 6.79337 5.96746 6.47563 4.87499 5.92212C3.78252 5.36862 2.81856 4.59171 2.04561 3.64176C1.65275 4.31909 1.53254 5.12059 1.70939 5.88337C1.88625 6.64615 2.34691 7.31296 2.99775 7.7483C2.50914 7.73279 2.03123 7.60124 1.60352 7.36451V7.4026C1.60308 8.1134 1.84881 8.80243 2.29894 9.35254C2.74908 9.90266 3.37583 10.2799 4.07266 10.4202C3.62003 10.544 3.14499 10.5621 2.68428 10.4729C2.88091 11.0842 3.26348 11.6188 3.77861 12.0022C4.29373 12.3856 4.9157 12.5987 5.55771 12.6116C4.46777 13.4677 3.12136 13.9321 1.73535 13.9299C1.48955 13.9295 1.244 13.9145 1 13.8848C2.40804 14.7881 4.04596 15.2679 5.71885 15.267Z" fill="#9098A0"/>
</g>
</g>
</svg>
